<svg xmlns="http://www.w3.org/2000/svg" viewBox="0 0 327.69 75.72"><defs><style>.a{fill:#ffd240;}.b{font-size:17px;fill:#fff;font-family:AlegreyaSC-Medium, Alegreya SC;}</style></defs><title>table</title><path class="a" d="M44.18,33.69l-1.38-.41L43.47,32a2.54,2.54,0,0,0,1.42,0,1.66,1.66,0,0,0,.75-1q1.53-3.89,3-7.76a1.55,1.55,0,0,0,.16-.83.59.59,0,0,0-.43-.42,3.45,3.45,0,0,0-.42-.14l-.3-.1-.08-.21.65-1.12,1.2.49c.57.24,1.12.46,1.62.65s1.11.41,1.77.63l1.38.45a6,6,0,0,1,3,2,2.82,2.82,0,0,1,.3,2.71A3,3,0,0,1,56.27,29a4.79,4.79,0,0,1-2.14.68,5.38,5.38,0,0,1,1.8,1.87,2.63,2.63,0,0,1,.15,2.2,3.59,3.59,0,0,1-1.44,1.85,4.75,4.75,0,0,1-2.47.71,8.24,8.24,0,0,1-3.1-.58,7.25,7.25,0,0,1-.69-.3l-.67-.32-.84-.39-.9-.39C45.46,34.1,44.87,33.9,44.18,33.69Zm4.14-1.53a1,1,0,0,0,.13,1.08,3.43,3.43,0,0,0,1.46.86,2.54,2.54,0,0,0,1.85.07,2,2,0,0,0,1.14-1.26,2,2,0,0,0-.07-1.58A3.37,3.37,0,0,0,51.5,30l-2-.72ZM51.19,28c.49.24.81.4,1,.46,0,0,.15,0,.49-.06a2.49,2.49,0,0,0,1-.46,2.26,2.26,0,0,0,.78-1.1,1.81,1.81,0,0,0-.16-1.75,4.26,4.26,0,0,0-2-1.3.39.39,0,0,0-.31,0,.66.66,0,0,0-.2.26c-.49,1-1,2.21-1.52,3.5Z" transform="translate(0 -20.48)"/><path class="a" d="M57.7,37.27a1.86,1.86,0,0,0,1.29-.1A2.11,2.11,0,0,0,59.71,36l2.64-7.71a1.71,1.71,0,0,0,.14-.88q-.08-.27-.54-.42l-.65-.2c0-.07,0-.14,0-.2l.57-1.11c.92.33,1.85.65,2.78,1,.39.13,1,.3,1.72.5l1.49.4c-.19.45-.39.9-.59,1.35a3.83,3.83,0,0,0-1.12-.1.78.78,0,0,0-.55.28,3.55,3.55,0,0,0-.42.82q-1.23,3-2.67,7.34a2.45,2.45,0,0,0-.16.84.65.65,0,0,0,.28.47,3.45,3.45,0,0,0,.84.37A4.5,4.5,0,0,0,65.1,39a1.49,1.49,0,0,0,1.06-.6,8.42,8.42,0,0,0,1.06-1.85l1.8.36.09.25c-.13.24-.39.8-.79,1.66s-.8,1.78-1.19,2.74l-.28.14-2.52-.9C63,40.36,61.86,40,60.8,39.6c-.8-.27-1.56-.5-2.31-.69s-1.21-.31-1.43-.35C57.28,38.13,57.49,37.7,57.7,37.27Z" transform="translate(0 -20.48)"/><path class="a" d="M75.94,44.22,76.39,43a8.53,8.53,0,0,0,1.12.17,1,1,0,0,0,.53-.08.55.55,0,0,0,.24-.36,3.61,3.61,0,0,0,.09-.75c0-.57,0-1.14,0-1.7-.75-.24-1.41-.44-2-.6q-.39-.11-1.65-.36l-.47-.09-1,1.41a2.84,2.84,0,0,0-.31.6.58.58,0,0,0,.08.58,1.61,1.61,0,0,0,.75.37l.94.27.07.17-.51,1.21L73,43.43c-.67-.23-1.29-.43-1.87-.6s-1.17-.34-1.66-.48-.82-.22-1-.25L69,40.82a1.63,1.63,0,0,0,.94-.13,2.86,2.86,0,0,0,.91-.82q3.49-4.59,6.86-9.23l3.31.57.21.17c0,.84,0,2.56,0,5.16s.11,4.7.21,6.29a2.39,2.39,0,0,0,.34,1.22,2.1,2.1,0,0,0,1,.66l0,.16c-.15.39-.3.77-.46,1.16l-1.07-.32c-.52-.16-1.06-.3-1.6-.45-.78-.21-1.54-.39-2.3-.54L76,44.42Zm.87-6.08c.15,0,.69.18,1.61.39,0-1.65,0-3.29,0-4.93l-.27-.07-2.9,4.17Z" transform="translate(0 -20.48)"/><path class="a" d="M86.63,46.45a5.5,5.5,0,0,1-1.7-2.81A7.41,7.41,0,0,1,85,40a7.91,7.91,0,0,1,1.9-3.58,6.57,6.57,0,0,1,3.23-1.88,8.65,8.65,0,0,1,4.14,0A14.54,14.54,0,0,1,96,35c.59.21,1.08.41,1.49.58s.67.29.78.35,0,.19.07.29-.15.31-.3.64-.32.77-.53,1.34S97,39.4,96.86,40l-2.08-.33c0-.06,0-.18.11-.38s.12-.43.18-.69a1.62,1.62,0,0,0-.28-1.47,3.21,3.21,0,0,0-1.72-.84,3.18,3.18,0,0,0-2.86.55,5.73,5.73,0,0,0-1.72,3.19,7,7,0,0,0,0,4.19,3.18,3.18,0,0,0,2.4,2.05,2.57,2.57,0,0,0,2-.26,4.2,4.2,0,0,0,1.44-2l2.13.34c-.09.22-.28.73-.57,1.51s-.52,1.52-.7,2.24l-.28.2a6.69,6.69,0,0,1-.79.08,17.54,17.54,0,0,1-1.91,0,12.47,12.47,0,0,1-2.34-.34A7.35,7.35,0,0,1,86.63,46.45Z" transform="translate(0 -20.48)"/><path class="a" d="M102,38.08c-.07-.17-.26-.28-.58-.35l-.64-.11-.08-.19.41-1.2,2.85.62c.38.08.92.16,1.59.25l1.35.17c-.13.45-.25.9-.37,1.36a2.59,2.59,0,0,0-1.15.18,1.1,1.1,0,0,0-.46.77l-1.8,8.17a2.23,2.23,0,0,0-.06,1.18.77.77,0,0,0,.65.42,5.44,5.44,0,0,0,.57.09l.3,0,.09.14-.45,1.28-1.32-.28c-.64-.15-1.26-.28-1.85-.4l-1.89-.35-1.2-.21.48-1.27a3.69,3.69,0,0,0,1,0A.86.86,0,0,0,100,48a2.66,2.66,0,0,0,.31-.9c.55-2.7,1.09-5.39,1.64-8.08A1.77,1.77,0,0,0,102,38.08Zm6.32,2.7a1.75,1.75,0,0,0,.77-1,.51.51,0,0,0-.2-.5A2.09,2.09,0,0,0,108,39l0-.15.41-1.25,1.19.28c.59.14,1.07.23,1.44.3s1,.16,1.48.22l1,.12.09.25c-.13.38-.25.77-.37,1.15a4.6,4.6,0,0,0-1.37.54,18.09,18.09,0,0,0-1.82,1.33c-.93.7-1.86,1.4-2.8,2.09.73,1.59,1.46,3.18,2.22,4.76a5.91,5.91,0,0,0,1,1.6,2.19,2.19,0,0,0,1.23.66l.11.21-.36,1.07-1.36-.08c-.68,0-1.1-.08-1.26-.11a2.23,2.23,0,0,1-1.2-.65,5.17,5.17,0,0,1-1-1.55c-.82-1.93-1.63-3.86-2.41-5.79l.15-.43Q106.37,42.18,108.29,40.78Z" transform="translate(0 -20.48)"/><path class="a" d="M112.27,54.67l.1-.22a5.46,5.46,0,0,0,1.52-1,3.4,3.4,0,0,0,.84-1.3,10.06,10.06,0,0,0,.52-2.12c.44-2.83.89-5.65,1.33-8.47a1.82,1.82,0,0,0,0-.9.69.69,0,0,0-.57-.31,4.69,4.69,0,0,0-.54-.06,1.62,1.62,0,0,1-.38,0l-.08-.18.35-1.22,2.64.42c.6.09,1.24.16,1.92.2l1.31.1c-.1.46-.2.93-.31,1.39a1.75,1.75,0,0,0-1,.19,1.41,1.41,0,0,0-.36.78q-.28,1.43-.81,4.35c-.34,2-.6,3.48-.78,4.6a5.23,5.23,0,0,1-1.55,3.22,6.89,6.89,0,0,1-3.69,1.47Z" transform="translate(0 -20.48)"/><path class="a" d="M127.64,54.37c.09-.41.17-.82.26-1.23a9.5,9.5,0,0,0,1.12,0,1.05,1.05,0,0,0,.51-.16.56.56,0,0,0,.18-.4,3.42,3.42,0,0,0,0-.75c-.1-.56-.19-1.12-.29-1.68-.76-.11-1.44-.21-2-.28-.26,0-.82-.06-1.67-.09l-.47,0c-.26.52-.51,1-.76,1.56a3,3,0,0,0-.22.64.56.56,0,0,0,.17.55,1.62,1.62,0,0,0,.8.25l1,.12.09.16c-.1.42-.21.85-.31,1.27l-1.34-.24c-.68-.12-1.33-.22-1.92-.3l-1.7-.2-1-.1c.12-.45.23-.9.35-1.35a1.58,1.58,0,0,0,.9-.28,2.92,2.92,0,0,0,.77-.95q2.7-5.09,5.29-10.2l3.34,0,.22.13c.13.83.4,2.52.83,5.09s.83,4.62,1.18,6.18a2.33,2.33,0,0,0,.52,1.15,2.05,2.05,0,0,0,1.11.49l.07.15-.27,1.22c-.2,0-.56-.08-1.1-.15l-1.64-.19q-1.2-.12-2.34-.18l-1.46-.06Zm-.09-6.13,1.64.12q-.39-2.43-.75-4.86l-.29,0Q127.07,45.76,126,48Z" transform="translate(0 -20.48)"/><path class="a" d="M138.48,54.89a5.38,5.38,0,0,1-2.11-2.51,7.34,7.34,0,0,1-.48-3.63,7.87,7.87,0,0,1,1.3-3.83,6.57,6.57,0,0,1,2.89-2.37,8.51,8.51,0,0,1,4.06-.63,16.89,16.89,0,0,1,1.71.23c.61.12,1.13.23,1.56.34s.7.18.81.22l.12.28c0,.1-.1.32-.19.67s-.2.82-.32,1.41-.23,1.22-.31,1.88h-2.09c0-.05,0-.18,0-.39s.05-.44.06-.71a1.62,1.62,0,0,0-.5-1.41,3.21,3.21,0,0,0-1.82-.56,3.16,3.16,0,0,0-2.72,1,5.85,5.85,0,0,0-1.19,3.43,7.13,7.13,0,0,0,.66,4.13,3.16,3.16,0,0,0,2.68,1.65,2.53,2.53,0,0,0,2-.58,4.2,4.2,0,0,0,1.1-2.2h2.15c-.06.24-.17.76-.33,1.58s-.27,1.59-.34,2.32l-.24.25a7.37,7.37,0,0,1-.77.2,18.51,18.51,0,0,1-1.88.29A14,14,0,0,1,142,56,7.3,7.3,0,0,1,138.48,54.89Z" transform="translate(0 -20.48)"/><path class="a" d="M152.24,44.22c-.09-.16-.3-.24-.62-.25H151l-.1-.18.21-1.25,2.9.17c.39,0,.92,0,1.6,0l1.35,0-.15,1.4a2.36,2.36,0,0,0-1.1.36,1.11,1.11,0,0,0-.33.83c-.17,2.78-.34,5.57-.5,8.35a2.31,2.31,0,0,0,.12,1.18.79.79,0,0,0,.7.32h.58l.3,0,.11.13-.24,1.33c-.24,0-.69,0-1.34-.07s-1.29-.08-1.89-.1l-1.91-.06c-.59,0-1,0-1.21,0l.27-1.33a3.2,3.2,0,0,0,1-.2.82.82,0,0,0,.48-.47,2.87,2.87,0,0,0,.17-.94q.17-4.11.35-8.22A1.76,1.76,0,0,0,152.24,44.22Zm6.63,1.67a1.69,1.69,0,0,0,.62-1,.5.5,0,0,0-.28-.46,2,2,0,0,0-.89-.2l-.06-.16.21-1.29,1.21.09c.61,0,1.1.06,1.47.07s1,0,1.49,0,.84,0,1-.05l.13.24c-.06.4-.12.79-.19,1.19a4.87,4.87,0,0,0-1.26.75,17.15,17.15,0,0,0-1.58,1.6l-2.43,2.5q1.44,2.19,2.92,4.36a6.15,6.15,0,0,0,1.25,1.42,2.26,2.26,0,0,0,1.31.46l.14.19c-.07.37-.13.74-.19,1.11l-1.35.13c-.67.07-1.09.09-1.26.09a2.12,2.12,0,0,1-1.28-.46A4.89,4.89,0,0,1,158.69,55q-1.66-2.67-3.27-5.35l.08-.44C156.64,48.13,157.76,47,158.87,45.89Z" transform="translate(0 -20.48)"/><path class="a" d="M170.44,55.33a2.08,2.08,0,0,0,1.23-.53,1.89,1.89,0,0,0,.29-1.28q-.06-4.07-.14-8.13a2,2,0,0,0-.16-.91c-.09-.16-.28-.23-.56-.23a3.19,3.19,0,0,0-.45,0l-.29,0-.13-.16c.05-.42.11-.84.16-1.26l2.73,0c.55,0,1.16,0,1.83-.08l1.42-.09a5.82,5.82,0,0,1,4,1,3.89,3.89,0,0,1,1.36,2.86,4.17,4.17,0,0,1-.63,2.4,5.29,5.29,0,0,1-1.89,1.87,5.21,5.21,0,0,1-2.57.77l-1.87,0c0,.54,0,1.08,0,1.62a7.11,7.11,0,0,0,.11,1.21.78.78,0,0,0,.31.51,1.29,1.29,0,0,0,.69.12,6,6,0,0,0,.61,0l.4,0,.07.1c-.05.46-.1.92-.16,1.37-.21,0-.6,0-1.16,0s-1.11,0-1.64,0-1.19,0-2,.1l-1.71.13C170.33,56.26,170.39,55.8,170.44,55.33ZM178.73,47a2.44,2.44,0,0,0-.86-2,4,4,0,0,0-2.51-.54.71.71,0,0,0-.38.06s-.08.14-.09.31c0,1.28-.08,2.91-.09,4.9l2,.22C178.15,49.64,178.79,48.64,178.73,47Z" transform="translate(0 -20.48)"/><path class="a" d="M189.7,55.76l0-1.26c.5-.08.87-.16,1.1-.22a1,1,0,0,0,.47-.25.61.61,0,0,0,.1-.43,3.41,3.41,0,0,0-.17-.73c-.2-.53-.39-1.07-.59-1.6-.77,0-1.46.06-2,.11-.27,0-.82.09-1.66.21l-.47.07c-.15.56-.31,1.12-.46,1.67a2.7,2.7,0,0,0-.09.67.58.58,0,0,0,.26.52,1.6,1.6,0,0,0,.83.09l1-.06.12.14c0,.44-.05.87-.07,1.31h-1.36c-.69,0-1.34,0-1.94.06l-1.71.11-1,.09.09-1.38a1.71,1.71,0,0,0,.84-.45,3,3,0,0,0,.57-1.07q1.73-5.5,3.31-11l3.29-.57.24.08q.42,1.18,1.75,4.85t2.31,5.86a2.18,2.18,0,0,0,.72,1,2,2,0,0,0,1.17.28l.11.14c0,.41,0,.83,0,1.24l-1.11.06-1.64.12c-.8.06-1.58.15-2.33.26l-1.45.2Zm-1.22-6,1.63-.18q-.83-2.31-1.63-4.64l-.29,0c-.43,1.64-.86,3.27-1.31,4.91Z" transform="translate(0 -20.48)"/><path class="a" d="M199,53.77a4.4,4.4,0,0,0,1.28-.44,1.06,1.06,0,0,0,.5-.63,3.42,3.42,0,0,0,0-1.15c0-.22,0-.43-.07-.65a4,4,0,0,0-.24-1,7.11,7.11,0,0,0-.63-1.09c-.86-1.26-1.72-2.53-2.56-3.8a5.49,5.49,0,0,0-1.17-1.43,2.75,2.75,0,0,0-1.51-.48l0-.1,0-1.35,1.14-.08c.55,0,1.1-.07,1.63-.12s1.09-.13,1.87-.26l1.57-.27.11.19c0,.39,0,.79,0,1.19a2.83,2.83,0,0,0-1,.3.5.5,0,0,0-.25.5,18.56,18.56,0,0,0,1.86,3.33c.37.62.54.91.52.89l.2,0c.46-1.25.92-2.5,1.37-3.75a2.69,2.69,0,0,0,.21-1c0-.16-.13-.26-.32-.32a3.36,3.36,0,0,0-.87-.06l0-.1c0-.41,0-.81,0-1.22l1-.08c.78-.06,1.38-.12,1.82-.17s.83-.12,1.28-.2.75-.13.88-.17l.11.14c0,.43,0,.86,0,1.29a3.09,3.09,0,0,0-1.27,1,11,11,0,0,0-1,2c-.54,1.35-1.08,2.69-1.64,4a2.69,2.69,0,0,0-.24,1.12c0,.37.06,1,.17,2a1.67,1.67,0,0,0,.34,1,1,1,0,0,0,.84.2c.27,0,.5-.07.7-.11l.41-.09.1.1,0,1.43-1.51.13q-1.11.09-2.16.21-.81.09-1.95.3l-1.5.29C199,54.73,199,54.25,199,53.77Z" transform="translate(0 -20.48)"/><path class="a" d="M212.78,53.39a8.94,8.94,0,0,1-1.5-.19,3.33,3.33,0,0,1-.6-.15l-.22-.27c0-.1,0-.32,0-.66s0-.79,0-1.35a14,14,0,0,0-.13-1.62l1.8-.38a5.64,5.64,0,0,0,.48,1.78,1.55,1.55,0,0,0,.87.79,3.51,3.51,0,0,0,1.55,0,3.06,3.06,0,0,0,1.65-.7,1.42,1.42,0,0,0,.45-1.32,1.44,1.44,0,0,0-.85-1.07,14,14,0,0,0-2.26-.83l-.54-.15a9.82,9.82,0,0,1-2.8-1.24A2.86,2.86,0,0,1,209.46,44a3.45,3.45,0,0,1,.45-2.26A4.82,4.82,0,0,1,211.74,40a8,8,0,0,1,2.87-1,12.6,12.6,0,0,1,1.77-.14,12.07,12.07,0,0,1,1.33,0l.65.08.19.25c0,.09,0,.31,0,.66s0,.8,0,1.35,0,1.1.09,1.66l-1.59.39-.21-.1a1.26,1.26,0,0,1,0-.26c0-.14,0-.3-.06-.5a1.67,1.67,0,0,0-.7-1.27,2.71,2.71,0,0,0-1.69-.15,2.64,2.64,0,0,0-1.46.66,1.32,1.32,0,0,0,.08,2.06,3.86,3.86,0,0,0,1,.57q.57.21,1.68.54c.87.25,1.6.49,2.18.71a4.55,4.55,0,0,1,1.54,1,2.71,2.71,0,0,1,.84,1.61,3.51,3.51,0,0,1-.41,2.34,4.93,4.93,0,0,1-1.92,1.83,10,10,0,0,1-5.12,1.11Z" transform="translate(0 -20.48)"/><path class="a" d="M228.36,52.81a3.6,3.6,0,0,1-.93-1.89l.27-.42a7.69,7.69,0,0,0,2.41-.11,5.43,5.43,0,0,0,2.74-1.28,2.1,2.1,0,0,0,.76-2,1.7,1.7,0,0,0-1.29-1.38,7.45,7.45,0,0,0-3.16.09l-.28-.19c-.17-.5-.33-1-.49-1.5l1.67-.72a4,4,0,0,0,1.26-1.35,2.22,2.22,0,0,0,.27-1.52,1.33,1.33,0,0,0-.68-.94,1.88,1.88,0,0,0-1.28-.16,3.7,3.7,0,0,0-1.38.64A5.55,5.55,0,0,0,227,41.28l-.35.07-.84-1.68a11.81,11.81,0,0,1,2-1.68,6.84,6.84,0,0,1,2.51-1.19,4.63,4.63,0,0,1,3,.23A2.68,2.68,0,0,1,234.77,39a3.09,3.09,0,0,1-.37,2.16,5.58,5.58,0,0,1-1.81,2l0,.17a6.62,6.62,0,0,1,3,.74,2.73,2.73,0,0,1,1.39,1.85,3.91,3.91,0,0,1-.63,2.86,9,9,0,0,1-2.64,2.77,9.73,9.73,0,0,1-3.69,1.59A2,2,0,0,1,228.36,52.81Z" transform="translate(0 -20.48)"/><path class="a" d="M246.42,45.52a6.12,6.12,0,0,0,1.39-.62,1,1,0,0,0,.44-.72,4.2,4.2,0,0,0-.19-1.4c-.7-2.76-1.41-5.51-2.11-8.27a7.82,7.82,0,0,0-1.69.64,1.12,1.12,0,0,0-.52.85,8.42,8.42,0,0,0,.11,1.91l-1.74.55c-.17-1.17-.44-2.65-.8-4.46l.18-.29,2.15-.29c2.2-.54,4.4-1.12,6.6-1.71l2.07-.82.29.17c.49,1.63,1,3,1.4,4.18l-1.72.61a11.73,11.73,0,0,0-.87-1.82,1.12,1.12,0,0,0-.83-.51,6.18,6.18,0,0,0-1.68.22c.2,1,.51,2.43.92,4.18s.8,3.35,1.18,4.77a1.7,1.7,0,0,0,.57,1,1.18,1.18,0,0,0,1,.08c.37-.1.75-.22,1.15-.37l.11.07.18,1.43q-2.36.55-3.81.93c-.77.2-2,.55-3.64,1Z" transform="translate(0 -20.48)"/><path class="a" d="M260.54,42.4a5.44,5.44,0,0,1-2.81-1.61A7.65,7.65,0,0,1,256,37.57a8.2,8.2,0,0,1-.19-4,6.6,6.6,0,0,1,1.71-3.22,7.53,7.53,0,0,1,3.33-2,7,7,0,0,1,3.49-.26,5.41,5.41,0,0,1,2.81,1.5A7.82,7.82,0,0,1,269,32.75a7.9,7.9,0,0,1,.34,4,6.5,6.5,0,0,1-1.71,3.34,8,8,0,0,1-3.51,2.07A6.79,6.79,0,0,1,260.54,42.4Zm5.69-4a5.44,5.44,0,0,0-.16-3.51,7.94,7.94,0,0,0-2.2-3.78,3.09,3.09,0,0,0-3-.61,2.87,2.87,0,0,0-2,1.86,5.76,5.76,0,0,0,.12,3.51,7.86,7.86,0,0,0,2.13,3.81,3.06,3.06,0,0,0,3,.63A3,3,0,0,0,266.23,38.37Z" transform="translate(0 -20.48)"/><path class="a" d="M278.43,34.24a30.68,30.68,0,0,0,1.67-4.7,4.65,4.65,0,0,0,.06-2.56,1.56,1.56,0,0,0-.84-1,1.84,1.84,0,0,0-1.34,0,2.92,2.92,0,0,0-1.34,1.06,5.7,5.7,0,0,0-.88,1.89l-.33.12c-.36-.53-.71-1.07-1.06-1.6a8,8,0,0,1,1.57-2.79,5.87,5.87,0,0,1,2.37-1.7,4.8,4.8,0,0,1,3.18-.21,3,3,0,0,1,2,1.86,3.84,3.84,0,0,1,.21,1.79,11.83,11.83,0,0,1-.67,2.6c-.39,1.07-1,2.52-1.79,4.34l.17.16,2.6-1a2.76,2.76,0,0,0,1.56-1.12,3.49,3.49,0,0,0,.11-2.07l1.85-.92c.05.31.18,1,.38,2s.43,1.95.68,2.79l-.26.44c-.71.26-2.12.77-4.26,1.5s-3.73,1.26-4.77,1.64l-1.62.82-.46-.72C277.6,36.07,278,35.15,278.43,34.24Z" transform="translate(0 -20.48)"/><text class="b" transform="translate(67.66 57.35) rotate(14.09)">D</text><text class="b" transform="translate(79.94 60.39) rotate(12.32)">e</text><text class="b" transform="matrix(0.98, 0.19, -0.19, 0.98, 89.17, 62.4)">a</text><text class="b" transform="translate(98.73 64.2) rotate(9.38)">l</text><text class="b" transform="translate(106.79 65.54) rotate(8.04)">e</text><text class="b" transform="translate(116.12 66.85) rotate(6.53)">r</text><text class="b" transform="translate(126.07 67.95) rotate(5.45)"> </text><text class="b" transform="translate(130.01 68.39) rotate(3.97)">M</text><text class="b" transform="translate(145.07 69.38) rotate(1.99)">u</text><text class="b" transform="translate(155.45 69.72) rotate(0.52)">s</text><text class="b" transform="translate(164.07 69.79) rotate(-0.85)">t</text><text class="b" transform="translate(173.09 69.62) rotate(-1.87)"> </text><text class="b" transform="translate(177.05 69.52) rotate(-2.95)">S</text><text class="b" transform="translate(186.9 68.99) rotate(-4.42)">t</text><text class="b" transform="translate(195.36 68.34) rotate(-5.8)">a</text><text class="b" transform="translate(205.02 67.36) rotate(-7.44)">n</text><text class="b" transform="translate(216.19 65.89) rotate(-9.16)">d</text><text class="b" transform="translate(226.91 64.11) rotate(-10.32)"> </text><text class="b" transform="matrix(0.98, -0.2, 0.2, 0.98, 230.83, 63.43)">o</text><text class="b" transform="matrix(0.97, -0.23, 0.23, 0.97, 241.23, 61.31)">n</text><text class="b" transform="matrix(0.97, -0.25, 0.25, 0.97, 252.2, 58.7)"> </text><text class="b" transform="matrix(0.97, -0.26, 0.26, 0.97, 256.06, 57.72)">1</text><text class="b" transform="translate(262.58 55.96) rotate(-16.26)">7</text><path class="a" d="M320.4,42.84l7.29-15.7-2.2,1.13c-.23.11-22.64,11.59-34.42,14.8l-.63.17v6.22C260.83,61.41,214.83,75.59,163.3,75.59a288.21,288.21,0,0,1-52.57-5.22A401.13,401.13,0,0,1,65,58.88C55.62,56,46.3,52.69,37.27,49.18V43.47l-.6-.18C29.73,41.16,2.38,28.66,2.11,28.54L0,27.58,7.15,42.84.42,51.94,19.28,59.6v6.47l.45.24c.59.31,14.58,7.65,39.07,15a352.07,352.07,0,0,0,45.39,10.27,381.35,381.35,0,0,0,59.66,4.67A368.57,368.57,0,0,0,222,91.54a370.4,370.4,0,0,0,45.55-10.27c25-7.34,40.21-14.88,40.37-15l.46-.24V59.82L327.21,52Zm-13.19-.67c-4.73,2.22-9.8,4.44-15.07,6.6V44.52c9.85-2.82,26.34-10.85,31.94-13.65L318.43,43l6.12,8.23L308.42,58V41.6Zm-.49,2.1V65c-2.62,1.27-17.06,8-39.63,14.62a367.4,367.4,0,0,1-45.34,10.22,367.08,367.08,0,0,1-57.9,4.64,379.87,379.87,0,0,1-59.37-4.64A352.38,352.38,0,0,1,59.31,79.66C37.14,73,23.48,66.31,21,65.05V44.26A403.81,403.81,0,0,0,64.47,60.49,400.29,400.29,0,0,0,110.4,72a289.24,289.24,0,0,0,52.9,5.25C228.29,77.28,284.75,54.47,306.72,44.27ZM9.12,43,3.5,31C9.78,33.88,29,42.53,35.56,44.72v3.8c-9.29-3.66-14.83-6.24-15.06-6.35l-1.22-.57V57.78L3.08,51.19Z" transform="translate(0 -20.48)"/></svg>