<svg xmlns="http://www.w3.org/2000/svg" viewBox="0 0 327.69 85.48"><defs><style>.a,.b{fill:#ffd240;}.b{stroke:#ffd240;stroke-miterlimit:10;}.c{fill:#fff;}</style></defs><title>table</title><path class="a" d="M24.57,15c-.8-.25-1.34-.41-1.6-.48l.8-1.4a3,3,0,0,0,1.67,0,1.88,1.88,0,0,0,.89-1.09L30,3.35a1.73,1.73,0,0,0,.19-.94.69.69,0,0,0-.49-.48,4.75,4.75,0,0,0-.49-.17l-.35-.11-.09-.25L29.57.15,31,.73c.67.28,1.3.54,1.89.77s1.29.48,2,.74l1.61.53a7.12,7.12,0,0,1,3.43,2.3,3.17,3.17,0,0,1,.31,3.08A3.35,3.35,0,0,1,38.79,9.9a5.75,5.75,0,0,1-2.51.74,6.21,6.21,0,0,1,2.08,2.15,2.89,2.89,0,0,1,.14,2.49,4.06,4.06,0,0,1-1.71,2.07,5.55,5.55,0,0,1-2.89.77,10,10,0,0,1-3.63-.71l-.81-.36-.77-.37-1-.46-1.06-.46C26.08,15.53,25.38,15.29,24.57,15Zm4.88-1.65a1.13,1.13,0,0,0,.13,1.23,4.15,4.15,0,0,0,1.7,1,3.08,3.08,0,0,0,2.16.11,2.3,2.3,0,0,0,1.35-1.41,2.19,2.19,0,0,0,0-1.79A4,4,0,0,0,33.19,11l-2.29-.85Zm3.42-4.65c.56.28.94.46,1.14.53,0,0,.17,0,.57,0a3.23,3.23,0,0,0,1.18-.5,2.54,2.54,0,0,0,.91-1.24,2,2,0,0,0-.15-2A5,5,0,0,0,34.17,4a.54.54,0,0,0-.36,0,.65.65,0,0,0-.24.3c-.59,1.17-1.2,2.49-1.83,3.94Z"/><path class="a" d="M33.79,18.24a10,10,0,0,1-3.56-.72c-.21-.08-.48-.2-.82-.36l-.77-.38-1-.45c-.43-.2-.79-.36-1.05-.46-.57-.22-1.27-.46-2.07-.71h0l-1.6-.49-.15,0L23.71,13l.09,0a3,3,0,0,0,1.59,0,1.81,1.81,0,0,0,.83-1L29.9,3.3a1.51,1.51,0,0,0,.19-.87q0-.24-.42-.39c-.15-.06-.31-.12-.48-.17l-.35-.11-.05,0-.13-.35L29.52,0l.1,0L31,.62c.66.28,1.29.53,1.89.77s1.3.49,2,.74l1.61.53A7.11,7.11,0,0,1,40,5a3.26,3.26,0,0,1,.33,3.18A3.54,3.54,0,0,1,38.86,10a5.85,5.85,0,0,1-2.25.73,6.09,6.09,0,0,1,1.86,2,3,3,0,0,1,.14,2.59,4.15,4.15,0,0,1-1.75,2.14,5.84,5.84,0,0,1-3,.78Zm-9.18-3.31c.81.25,1.52.5,2.1.72.26.1.62.26,1.06.47l1,.45.78.37c.33.17.6.28.8.36a9.87,9.87,0,0,0,3.58.7,5.57,5.57,0,0,0,2.83-.75,3.9,3.9,0,0,0,1.65-2,2.8,2.8,0,0,0-.13-2.4,6,6,0,0,0-2-2.1l-.28-.19.34,0a5.69,5.69,0,0,0,2.46-.72,3.34,3.34,0,0,0,1.41-1.69,3.06,3.06,0,0,0-.3-3,7,7,0,0,0-3.37-2.26c-.31-.09-.84-.27-1.61-.53s-1.43-.5-2-.74-1.24-.49-1.9-.77L29.62.3l-.69,1.11.05.14.28.09c.18.06.34.11.5.18a.81.81,0,0,1,.57.57,1.76,1.76,0,0,1-.2,1l-3.69,8.75a2,2,0,0,1-1,1.16,3,3,0,0,1-1.66,0l-.68,1.2,1.46.44Zm8,1.07a3.86,3.86,0,0,1-1.35-.27,4.35,4.35,0,0,1-1.74-1,1.24,1.24,0,0,1-.16-1.35h0L30.83,10l.11,0,2.3.85h0a4.14,4.14,0,0,1,1.59,1.62,2.28,2.28,0,0,1,0,1.88,2.37,2.37,0,0,1-1.42,1.48A2.44,2.44,0,0,1,32.58,16Zm-3-2.56a1,1,0,0,0,.12,1.11,4.24,4.24,0,0,0,1.64,1,3,3,0,0,0,2.08.11,2.2,2.2,0,0,0,1.27-1.34,2.06,2.06,0,0,0-.05-1.7,3.91,3.91,0,0,0-1.48-1.51L31,10.26Zm4.49-4a.15.15,0,0,1-.12,0c-.22-.08-.59-.26-1.12-.52l-1.12-.56-.11,0,.05-.11c.62-1.44,1.24-2.77,1.83-3.94a.67.67,0,0,1,.3-.35.54.54,0,0,1,.46,0,5.13,5.13,0,0,1,2.4,1.55,2.14,2.14,0,0,1,.17,2.11,2.68,2.68,0,0,1-1,1.28,3.13,3.13,0,0,1-1.23.53A4.07,4.07,0,0,1,34.05,9.41ZM31.9,8.12l1,.51h0c.55.28.94.46,1.13.53h0a3.36,3.36,0,0,0,.49-.07,3,3,0,0,0,1.13-.48,2.47,2.47,0,0,0,.87-1.18,1.83,1.83,0,0,0-.15-1.88,4.89,4.89,0,0,0-2.28-1.47c-.17-.07-.24,0-.27,0a.62.62,0,0,0-.18.24C33.1,5.44,32.5,6.73,31.9,8.12Z"/><path class="a" d="M40.35,19.35a2.19,2.19,0,0,0,1.51-.1A2.36,2.36,0,0,0,42.72,18L45.9,9.26a1.83,1.83,0,0,0,.17-1c0-.2-.26-.36-.61-.48l-.77-.24,0-.22c.23-.42.45-.84.68-1.25L48.55,7.2c.46.15,1.12.35,2,.59l1.75.47-.72,1.52a4.92,4.92,0,0,0-1.29-.13.91.91,0,0,0-.66.32,4.23,4.23,0,0,0-.5.92q-1.47,3.33-3.21,8.28a2.56,2.56,0,0,0-.19.95.71.71,0,0,0,.32.53,3.76,3.76,0,0,0,1,.44,5.75,5.75,0,0,0,2,.36,1.84,1.84,0,0,0,1.25-.67,9.61,9.61,0,0,0,1.25-2.08l2.1.43.1.28-.93,1.87c-.48,1-.95,2-1.42,3.09l-.34.15c-.45-.16-1.43-.5-2.94-1.05S45.18,22.45,44,22c-.93-.31-1.82-.58-2.69-.81s-1.42-.37-1.67-.42Z"/><path class="a" d="M51,24.65h0L48,23.59c-1.58-.58-2.92-1.05-4.11-1.44-.93-.32-1.83-.59-2.68-.81l-1.66-.43-.16,0,.88-1.67.09,0a2.13,2.13,0,0,0,1.42-.08,2.28,2.28,0,0,0,.81-1.22l3.18-8.71A1.77,1.77,0,0,0,46,8.29c-.05-.16-.23-.29-.55-.4l-.82-.26-.08-.33.75-1.38.1,0c1.07.39,2.16.77,3.23,1.14.47.16,1.14.35,2,.59l1.74.47.14,0-.81,1.74-.1,0a4.36,4.36,0,0,0-1.26-.13.81.81,0,0,0-.57.27,5,5,0,0,0-.49.89c-1,2.23-2.06,5-3.2,8.28a2.35,2.35,0,0,0-.19.9.6.6,0,0,0,.27.45,3.91,3.91,0,0,0,.94.42,5.69,5.69,0,0,0,1.92.35,1.66,1.66,0,0,0,1.16-.63,9.41,9.41,0,0,0,1.24-2.06l0-.08.1,0,2.1.43h.07l.14.4,0,0c-.14.27-.45.88-.93,1.87s-.95,2-1.42,3.08l0,0ZM39.77,20.72c.28.06.75.18,1.52.39s1.77.5,2.7.81c1.19.4,2.53.87,4.11,1.44s2.43.87,2.9,1l.24-.11c.47-1.06.94-2.09,1.41-3.05l.91-1.83-.06-.17-1.94-.4a9.45,9.45,0,0,1-1.23,2,2,2,0,0,1-1.33.71,5.77,5.77,0,0,1-2-.37,3.77,3.77,0,0,1-1-.45.83.83,0,0,1-.36-.63,2.57,2.57,0,0,1,.19-1C47,15.87,48,13.08,49,10.84a4.42,4.42,0,0,1,.51-.94,1.08,1.08,0,0,1,.74-.37,4.4,4.4,0,0,1,1.24.12l.62-1.31-1.61-.43q-1.29-.36-2-.6l-3.13-1.1-.61,1.12,0,.12.69.21c.41.14.63.33.7.57A1.88,1.88,0,0,1,46,9.3L42.84,18a2.39,2.39,0,0,1-.92,1.35,2.22,2.22,0,0,1-1.5.12Z"/><path class="a" d="M61.62,27.48l.54-1.33c.59.11,1,.18,1.31.2a1.15,1.15,0,0,0,.61-.08.65.65,0,0,0,.29-.41,4.42,4.42,0,0,0,.11-.85c0-.64,0-1.29,0-1.93-.87-.27-1.64-.51-2.32-.7-.3-.09-.94-.23-1.93-.43l-.54-.11c-.39.54-.79,1.07-1.18,1.6a3,3,0,0,0-.38.67.63.63,0,0,0,.09.65,2,2,0,0,0,.88.44l1.1.31.07.2-.6,1.36-1.51-.52c-.78-.27-1.5-.51-2.19-.71s-1.36-.4-1.93-.56L52.88,25l.66-1.44a2,2,0,0,0,1.11-.14,3.5,3.5,0,0,0,1.07-.92q4.13-5.14,8.11-10.38c1.29.24,2.57.47,3.86.69l.24.19c0,.95,0,2.9,0,5.85S68,24.16,68.1,26a2.48,2.48,0,0,0,.39,1.37,2.32,2.32,0,0,0,1.19.76l.06.19c-.19.44-.37.87-.55,1.31l-1.25-.38-1.87-.52c-.91-.24-1.81-.46-2.69-.64L61.7,27.7Zm1.07-6.88,1.88.45q0-2.79.06-5.58l-.32-.09q-1.71,2.35-3.43,4.7Z"/><path class="a" d="M69.26,29.75l-.11,0-1.25-.37c-.6-.18-1.23-.35-1.87-.52-.91-.25-1.81-.46-2.67-.65l-1.42-.3-.34-.07-.11-.33L62.08,26l.1,0a10.7,10.7,0,0,0,1.29.2,1.07,1.07,0,0,0,.55-.06.56.56,0,0,0,.23-.34,3.54,3.54,0,0,0,.1-.82c0-.61,0-1.23,0-1.84-.86-.28-1.59-.5-2.22-.68-.29-.08-.88-.21-1.92-.42L59.73,22,58.6,23.51a3.05,3.05,0,0,0-.36.63.54.54,0,0,0,.06.54,1.81,1.81,0,0,0,.82.4l1.1.32.06,0,.12.29-.68,1.51-.1,0-1.51-.52c-.78-.27-1.51-.51-2.18-.71L54,25.39c-.59-.16-1-.25-1.15-.29l-.14,0,.76-1.65h.09a1.8,1.8,0,0,0,1-.13,3.33,3.33,0,0,0,1-.88C58.36,19,61.09,15.5,63.73,12l0-.06h.08c1.28.24,2.58.47,3.86.69h0l.31.25V13c0,.89,0,2.84,0,5.85,0,2.84.08,5.24.19,7.13a2.43,2.43,0,0,0,.37,1.31,2.3,2.3,0,0,0,1.13.72l.06,0,.09.29ZM61.79,27.6l.2,0,1.42.3c.87.18,1.77.4,2.69.65.64.17,1.27.34,1.87.52l1.15.34.49-1.16,0-.09a2.5,2.5,0,0,1-1.19-.79A2.62,2.62,0,0,1,68,26c-.12-1.89-.18-4.3-.19-7.14s0-4.88,0-5.79l-.16-.14c-1.25-.21-2.51-.44-3.76-.67-2.63,3.46-5.34,6.93-8.06,10.33a3.57,3.57,0,0,1-1.12.94,2,2,0,0,1-1.08.17l-.57,1.23,1,.27c.56.15,1.2.33,1.94.55s1.41.44,2.19.71l1.4.49.54-1.21,0-.1-1-.3a2.08,2.08,0,0,1-.93-.47.76.76,0,0,1-.12-.77,3.6,3.6,0,0,1,.39-.7c.4-.53.8-1.06,1.19-1.6l0-.06.63.12c1,.22,1.64.35,1.94.44.65.18,1.41.41,2.31.7l.09,0v.09c0,.64,0,1.29,0,1.93a4.57,4.57,0,0,1-.11.88.76.76,0,0,1-.35.48,1.19,1.19,0,0,1-.68.1,10.84,10.84,0,0,1-1.23-.19l-.48,1.2Zm2.9-6.4-.15,0c-1.13-.26-1.72-.41-1.89-.46h0l-1.81-.52-.16-.05.1-.13c1.14-1.55,2.3-3.13,3.43-4.7l.05-.07.49.14v.09c0,1.85,0,3.73-.06,5.58Zm-2-.72c.16.05.7.18,1.73.42,0-1.77,0-3.57.06-5.34l-.15,0c-1.08,1.5-2.19,3-3.28,4.49l1.64.47Z"/><path class="a" d="M74.11,30.12a6.22,6.22,0,0,1-2-3.21,8.09,8.09,0,0,1,.14-4.15,8.85,8.85,0,0,1,2.23-4,7.86,7.86,0,0,1,3.8-2.11,10.54,10.54,0,0,1,4.83.06,18.73,18.73,0,0,1,1.94.58c.68.24,1.26.47,1.73.67l.9.39.08.34c-.05.1-.17.34-.34.72s-.39.88-.64,1.51-.48,1.32-.7,2.05l-2.43-.39c0-.06.06-.2.13-.43s.14-.48.21-.78a1.77,1.77,0,0,0-.32-1.67,4.57,4.57,0,0,0-5.34-.36,6.41,6.41,0,0,0-2,3.6,7.79,7.79,0,0,0,0,4.75A3.71,3.71,0,0,0,79.11,30a3.13,3.13,0,0,0,2.41-.28,4.74,4.74,0,0,0,1.69-2.26l2.49.4c-.11.25-.33.82-.67,1.7s-.62,1.73-.84,2.54l-.32.23s-.32,0-.93.08a21.38,21.38,0,0,1-2.24,0A16.22,16.22,0,0,1,78,32,8.89,8.89,0,0,1,74.11,30.12Z"/><path class="a" d="M82.05,32.55c-.42,0-.87,0-1.35,0a16.46,16.46,0,0,1-2.76-.41A9,9,0,0,1,74,30.21a6.35,6.35,0,0,1-2-3.27,8.21,8.21,0,0,1,.14-4.21,9,9,0,0,1,2.27-4.09,7.9,7.9,0,0,1,3.85-2.14,10.61,10.61,0,0,1,4.88.06,16.81,16.81,0,0,1,2,.58c.7.25,1.27.47,1.74.67l.91.39,0,0,.1.44,0,0c-.05.09-.17.33-.34.7s-.38.87-.63,1.52-.49,1.32-.71,2l0,.1h-.1l-2.43-.39-.13,0,0-.13c0-.06.06-.21.13-.43s.14-.48.21-.78a1.66,1.66,0,0,0-.29-1.56,3.73,3.73,0,0,0-1.94-.93,3.62,3.62,0,0,0-3.23.58,6.36,6.36,0,0,0-2,3.54,7.61,7.61,0,0,0,0,4.67,3.61,3.61,0,0,0,2.71,2.28,3,3,0,0,0,2.31-.26,4.65,4.65,0,0,0,1.65-2.21l0-.08h.09l2.49.4.15,0-.06.14-.67,1.7c-.33.88-.61,1.73-.83,2.53v0L84,32.4c0,.06-.19.08-1,.13ZM80.5,16.48a9,9,0,0,0-2.16.25A7.77,7.77,0,0,0,74.6,18.8a8.89,8.89,0,0,0-2.21,4,8.07,8.07,0,0,0-.13,4.09A6.08,6.08,0,0,0,74.19,30h0A8.71,8.71,0,0,0,78,31.87a15.85,15.85,0,0,0,2.71.4,21,21,0,0,0,2.22,0c.66,0,.83-.06.88-.07l.27-.19c.22-.79.5-1.64.83-2.51s.5-1.28.62-1.57l-2.24-.36a4.88,4.88,0,0,1-1.71,2.23,3.2,3.2,0,0,1-2.49.29,3.84,3.84,0,0,1-2.89-2.42,7.93,7.93,0,0,1,0-4.82,6.56,6.56,0,0,1,2.08-3.67,3.94,3.94,0,0,1,3.44-.62,3.85,3.85,0,0,1,2.07,1,1.9,1.9,0,0,1,.34,1.77c-.07.29-.14.56-.22.79s-.07.22-.09.3l2.19.34c.21-.68.44-1.34.68-1.95s.46-1.15.64-1.52.26-.57.32-.69l0-.24L86.76,18c-.46-.2-1-.42-1.73-.67a18.28,18.28,0,0,0-1.92-.57A11.53,11.53,0,0,0,80.5,16.48Z"/><path class="a" d="M92.09,20.74a.86.86,0,0,0-.68-.39l-.75-.13L90.57,20l.48-1.36q1.67.38,3.33.72c.45.09,1.07.19,1.86.29l1.56.2c-.14.51-.29,1-.43,1.54a2.89,2.89,0,0,0-1.34.2,1.29,1.29,0,0,0-.54.87q-1.06,4.62-2.14,9.24A2.53,2.53,0,0,0,93.28,33a.92.92,0,0,0,.75.49c.26,0,.48.08.67.1a1.75,1.75,0,0,0,.36,0l.1.17-.53,1.44-1.54-.32c-.75-.17-1.48-.33-2.17-.46s-1.52-.3-2.21-.42l-1.4-.24c.19-.48.38-1,.56-1.44a4,4,0,0,0,1.23,0,1,1,0,0,0,.64-.43,3.16,3.16,0,0,0,.37-1l1.94-9.13A1.89,1.89,0,0,0,92.09,20.74Zm7.36,3.09a1.91,1.91,0,0,0,.9-1.07.52.52,0,0,0-.23-.56,2.35,2.35,0,0,0-1-.39l0-.18.48-1.41c.23.06.69.17,1.38.32s1.26.27,1.69.35,1.14.18,1.72.25l1.2.14.11.28c-.15.44-.29.87-.43,1.3a5.46,5.46,0,0,0-1.6.62,18.48,18.48,0,0,0-2.13,1.5l-3.28,2.36q1.26,2.7,2.58,5.4A7.14,7.14,0,0,0,102,34.56a2.71,2.71,0,0,0,1.44.75l.12.24-.42,1.2-1.59-.09c-.79,0-1.28-.1-1.47-.13a2.62,2.62,0,0,1-1.41-.74A5.87,5.87,0,0,1,97.54,34c-1-2.19-1.89-4.38-2.8-6.58l.18-.48Q97.2,25.41,99.45,23.83Z"/><path class="a" d="M103.21,36.87h-.09l-1.59-.09c-.77-.05-1.28-.1-1.49-.13a2.69,2.69,0,0,1-1.46-.78,5.89,5.89,0,0,1-1.15-1.79c-1-2.18-1.89-4.39-2.8-6.59l0,0,.21-.56,0,0c1.52-1,3-2.09,4.53-3.14h0a1.79,1.79,0,0,0,.85-1,.41.41,0,0,0-.19-.45,2.13,2.13,0,0,0-.93-.36l-.08,0L99,21.62l.53-1.54.11,0c.25.07.74.18,1.38.33s1.24.26,1.68.34,1.15.18,1.72.25l1.19.14h.08l.15.39L105.33,23h-.07a5.57,5.57,0,0,0-1.56.6,19.63,19.63,0,0,0-2.12,1.49c-1,.77-2.13,1.54-3.2,2.31.83,1.77,1.68,3.55,2.54,5.31a6.74,6.74,0,0,0,1.16,1.78,2.5,2.5,0,0,0,1.37.72h.06l.17.34Zm-8.33-9.42c.9,2.17,1.83,4.37,2.77,6.53a5.49,5.49,0,0,0,1.1,1.72,2.42,2.42,0,0,0,1.34.71,13.1,13.1,0,0,0,1.46.13l1.49.09.37-1.07-.07-.15a2.85,2.85,0,0,1-1.44-.77,7.12,7.12,0,0,1-1.2-1.85c-.87-1.78-1.74-3.6-2.58-5.4l0-.09.08-.06c1.09-.78,2.19-1.57,3.27-2.36a19.77,19.77,0,0,1,2.15-1.5,5.52,5.52,0,0,1,1.56-.62l.4-1.19-.07-.18-1.12-.13c-.58-.07-1.16-.16-1.73-.26s-1-.19-1.7-.34l-1.27-.3-.43,1.27v.08a2.42,2.42,0,0,1,1,.39.69.69,0,0,1,.27.69,2,2,0,0,1-1,1.14C98,25,96.53,26,95,27Zm-.17,8-.1,0c-.3-.05-.85-.17-1.55-.33s-1.48-.32-2.16-.46l-2.21-.41-1.39-.24-.16,0,.65-1.66h.09a4.38,4.38,0,0,0,1.19,0,.9.9,0,0,0,.57-.39,3.09,3.09,0,0,0,.35-1l1.94-9.14a1.73,1.73,0,0,0,0-.94c-.06-.15-.26-.26-.58-.33l-.82-.14L90.44,20,91,18.5l.11,0,3.32.72c.46.09,1.08.18,1.85.28l1.57.2.14,0-.5,1.76h-.09a2.8,2.8,0,0,0-1.28.18,1.17,1.17,0,0,0-.48.79q-1.06,4.64-2.14,9.25A2.38,2.38,0,0,0,93.4,33c.08.21.3.35.66.41s.47.08.65.1a1.64,1.64,0,0,0,.33,0h.08l.18.28Zm-7.23-1.67,1.26.21,2.2.42,2.18.46,1.43.31.48-1.3,0-.06-.3,0c-.19,0-.42,0-.68-.1a1,1,0,0,1-.84-.56,2.56,2.56,0,0,1,.06-1.41c.72-3.08,1.43-6.17,2.14-9.25a1.4,1.4,0,0,1,.6-.95,2.94,2.94,0,0,1,1.31-.21L97.65,20l-1.43-.18c-.77-.1-1.4-.2-1.87-.29l-3.22-.7L90.7,20l0,.11.68.12c.42.08.67.23.77.46h0a2,2,0,0,1,0,1.09l-1.94,9.14A3.35,3.35,0,0,1,89.85,32a1.15,1.15,0,0,1-.73.49,4.19,4.19,0,0,1-1.17,0Z"/><path class="a" d="M104.07,39.59l.12-.25A6.34,6.34,0,0,0,106,38.25a4.06,4.06,0,0,0,1-1.47,11.2,11.2,0,0,0,.6-2.41q.8-4.8,1.57-9.59a1.93,1.93,0,0,0,0-1c-.09-.19-.31-.3-.67-.36a6.2,6.2,0,0,0-.62-.06l-.45,0-.09-.21c.14-.46.27-.92.41-1.38l3.08.47c.71.11,1.45.19,2.24.24l1.53.11-.36,1.58a1.93,1.93,0,0,0-1.11.21,1.56,1.56,0,0,0-.42.89c-.23,1.07-.55,2.71-1,4.92s-.71,4-.92,5.22A5.75,5.75,0,0,1,109,39a8,8,0,0,1-4.32,1.66Z"/><path class="a" d="M104.58,40.79l0-.07c-.19-.36-.38-.72-.58-1.07l0-.06.17-.34,0,0a6.2,6.2,0,0,0,1.74-1.06,4.07,4.07,0,0,0,1-1.43,11.67,11.67,0,0,0,.59-2.39L109,24.76a1.77,1.77,0,0,0,0-1c-.07-.15-.27-.24-.58-.29a5.73,5.73,0,0,0-.61-.06,3.21,3.21,0,0,1-.46,0h-.06l-.14-.31.45-1.51h.11l3.08.47c.7.11,1.45.19,2.23.24l1.25.09.42,0-.41,1.81h-.1a1.79,1.79,0,0,0-1,.18,1.46,1.46,0,0,0-.38.83c-.23,1.06-.55,2.72-1,4.91s-.71,4-.92,5.22a5.94,5.94,0,0,1-1.85,3.71,8.32,8.32,0,0,1-4.39,1.69Zm-.37-1.2.51.94a7.93,7.93,0,0,0,4.17-1.62,5.68,5.68,0,0,0,1.78-3.57c.2-1.24.51-3,.92-5.22s.72-3.86,1-4.92a1.64,1.64,0,0,1,.46-1,1.92,1.92,0,0,1,1.09-.24l.31-1.35h-.14L113,22.55c-.78-.05-1.54-.13-2.24-.24l-3-.46-.37,1.24,0,.11.37,0c.21,0,.43,0,.63.06a.94.94,0,0,1,.76.43,2,2,0,0,1,0,1.08l-1.58,9.6a11.63,11.63,0,0,1-.61,2.44,4,4,0,0,1-1,1.51,6.5,6.5,0,0,1-1.76,1.09Z"/><path class="a" d="M122.06,39.28l.3-1.4a13,13,0,0,0,1.31,0,1.17,1.17,0,0,0,.59-.18.6.6,0,0,0,.21-.45,4.39,4.39,0,0,0,0-.85c-.12-.64-.23-1.27-.34-1.91-.9-.13-1.69-.23-2.38-.31-.31,0-1-.07-2-.11l-.55,0c-.3.59-.59,1.18-.89,1.76a2.68,2.68,0,0,0-.25.73.63.63,0,0,0,.19.63,2,2,0,0,0,.94.28l1.12.14.11.18-.36,1.44-1.57-.27c-.8-.14-1.55-.26-2.25-.35l-2-.23-1.17-.11c.13-.51.27-1,.4-1.53a1.85,1.85,0,0,0,1.06-.32,3.37,3.37,0,0,0,.89-1.07q3.18-5.76,6.18-11.56c1.3,0,2.6,0,3.9,0l.26.15q.23,1.41,1,5.77t1.4,7a2.51,2.51,0,0,0,.61,1.29,2.35,2.35,0,0,0,1.29.56l.09.17c-.11.46-.21.92-.32,1.38L128.53,40l-1.92-.21c-.93-.09-1.84-.16-2.73-.2l-1.71-.07Zm-.12-7,1.92.15c-.3-1.84-.6-3.68-.88-5.52l-.33,0c-.85,1.73-1.7,3.46-2.57,5.19Z"/><path class="a" d="M129.92,40.28l-.12,0c-.22,0-.62-.09-1.28-.17l-1.92-.21c-.93-.09-1.85-.16-2.73-.2l-1.44-.06-.34,0-.16-.3.33-1.54h.1a10.38,10.38,0,0,0,1.3,0,1.1,1.1,0,0,0,.53-.15.56.56,0,0,0,.16-.37,3.67,3.67,0,0,0,0-.83c-.1-.6-.21-1.21-.32-1.81-.89-.13-1.64-.23-2.29-.3-.29,0-.91-.07-2-.11l-.47,0c-.28.57-.57,1.13-.85,1.7a2.78,2.78,0,0,0-.24.68.56.56,0,0,0,.15.53,1.84,1.84,0,0,0,.87.25l1.13.14h.06l.16.28-.4,1.6-.11,0L118.48,39c-.8-.13-1.55-.25-2.25-.34l-2-.23c-.61-.07-1-.1-1.17-.11h-.15l.47-1.75h.09a1.7,1.7,0,0,0,1-.29,3.41,3.41,0,0,0,.86-1c2.1-3.81,4.17-7.7,6.17-11.55l0-.07h.08c1.29,0,2.6,0,3.89.05h0l.35.2v.05c.15.89.46,2.81,1,5.77.49,2.79,1,5.15,1.4,7a2.47,2.47,0,0,0,.57,1.24,2.35,2.35,0,0,0,1.23.52h.06l.14.27Zm-7.67-.91h.19l1.44.07c.89,0,1.81.1,2.75.19l1.92.21,1.18.16.28-1.23,0-.09a2.46,2.46,0,0,1-1.3-.57,2.66,2.66,0,0,1-.64-1.36c-.44-1.85-.91-4.21-1.4-7s-.81-4.8-1-5.71l-.18-.11c-1.26,0-2.53,0-3.79-.05-2,3.84-4.06,7.7-6.15,11.49a3.44,3.44,0,0,1-.93,1.12,2,2,0,0,1-1,.34l-.35,1.3,1,.1,2,.24c.7.09,1.46.2,2.26.34l1.46.25.32-1.28,0-.09-1.07-.13a2,2,0,0,1-1-.31.75.75,0,0,1-.25-.74,3.16,3.16,0,0,1,.27-.75L119.1,34l0-.07.63,0c1.06,0,1.67.07,2,.11l2.39.31.09,0v.08c.11.64.22,1.27.34,1.9a3.52,3.52,0,0,1,0,.89.72.72,0,0,1-.25.53,1.25,1.25,0,0,1-.66.21,11.35,11.35,0,0,1-1.22,0l-.27,1.26ZM124,32.59h-.15c-1.16-.07-1.75-.12-1.92-.14h0l-1.86-.22-.17,0,.07-.15c.86-1.72,1.73-3.46,2.57-5.18l0-.08.51.06,0,.09c.28,1.82.58,3.67.88,5.51Zm-2-.39c.17,0,.71.07,1.76.14-.28-1.76-.57-3.53-.84-5.28h-.15c-.8,1.64-1.63,3.31-2.45,5l1.68.19Z"/><path class="a" d="M134.73,39.85A6.24,6.24,0,0,1,132.26,37a8.16,8.16,0,0,1-.57-4.11,8.9,8.9,0,0,1,1.51-4.35,7.74,7.74,0,0,1,3.36-2.69,10.13,10.13,0,0,1,4.74-.72,17.05,17.05,0,0,1,2,.25c.71.13,1.32.26,1.82.38l.95.24.14.32c0,.11-.12.37-.22.76s-.23.93-.37,1.6-.25,1.38-.35,2.13h-2.44c0-.06,0-.21,0-.44s.06-.5.08-.8a1.82,1.82,0,0,0-.59-1.6,3.9,3.9,0,0,0-2.13-.63,3.74,3.74,0,0,0-3.17,1.13,6.37,6.37,0,0,0-1.38,3.89,7.73,7.73,0,0,0,.79,4.68,3.7,3.7,0,0,0,3.14,1.86,3,3,0,0,0,2.3-.66,4.64,4.64,0,0,0,1.28-2.5h2.51c-.07.27-.19.87-.37,1.79s-.31,1.8-.39,2.64l-.28.27a5.21,5.21,0,0,1-.9.23,20.23,20.23,0,0,1-2.19.35,15.62,15.62,0,0,1-2.75,0A8.71,8.71,0,0,1,134.73,39.85Z"/><path class="a" d="M140,41.23c-.38,0-.77,0-1.17,0A8.81,8.81,0,0,1,134.67,40a6.44,6.44,0,0,1-2.53-2.89,8.38,8.38,0,0,1-.57-4.17,9,9,0,0,1,1.53-4.41,7.85,7.85,0,0,1,3.41-2.73,10.37,10.37,0,0,1,4.8-.73,17.91,17.91,0,0,1,2,.25c.73.14,1.32.26,1.82.38l1,.25h0l.18.42,0,0q-.06.15-.21.75c-.11.39-.23.92-.37,1.6s-.25,1.37-.34,2.12l0,.1H142.7v-.12c0-.07,0-.22,0-.46s.06-.49.07-.79a1.65,1.65,0,0,0-.54-1.5,3.76,3.76,0,0,0-2.06-.6,3.6,3.6,0,0,0-3.07,1.09,6.32,6.32,0,0,0-1.35,3.82,7.73,7.73,0,0,0,.77,4.61,3.61,3.61,0,0,0,3,1.8,2.91,2.91,0,0,0,2.22-.63,4.67,4.67,0,0,0,1.25-2.44l0-.09h2.76l0,.15c-.06.26-.18.84-.37,1.78s-.31,1.81-.39,2.63v0l-.29.28c0,.07-.17.1-1,.29a21.11,21.11,0,0,1-2.21.35C141.08,41.2,140.54,41.23,140,41.23Zm.49-16a9.82,9.82,0,0,0-3.87.74,7.59,7.59,0,0,0-3.31,2.65,8.83,8.83,0,0,0-1.49,4.29,8.17,8.17,0,0,0,.56,4.06,6.12,6.12,0,0,0,2.43,2.78h0a8.58,8.58,0,0,0,4,1.2,15.43,15.43,0,0,0,2.73,0,20.44,20.44,0,0,0,2.17-.34l.86-.21.23-.24c.08-.81.21-1.69.39-2.6s.27-1.34.34-1.65H143.3A4.8,4.8,0,0,1,142,38.35a3.2,3.2,0,0,1-2.4.69,3.85,3.85,0,0,1-3.24-1.92,7.87,7.87,0,0,1-.8-4.75A6.44,6.44,0,0,1,137,28.42a3.84,3.84,0,0,1,3.26-1.18,3.93,3.93,0,0,1,2.2.66,1.91,1.91,0,0,1,.64,1.69c0,.31,0,.58-.08.82s0,.23,0,.3h2.21c.09-.71.2-1.39.33-2s.26-1.21.37-1.61.16-.6.2-.72l-.09-.23-.89-.23c-.49-.12-1.08-.24-1.81-.37a17.43,17.43,0,0,0-2-.26Z"/><path class="a" d="M150.77,27.7a.85.85,0,0,0-.73-.28h-.76l-.12-.2.24-1.41,3.39.17c.45,0,1.08,0,1.87,0s1.32,0,1.57-.06c0,.53-.11,1.06-.16,1.59a2.89,2.89,0,0,0-1.28.42,1.23,1.23,0,0,0-.39.94c-.17,3.16-.35,6.31-.53,9.47a2.51,2.51,0,0,0,.16,1.33.92.92,0,0,0,.82.36h.67a2.83,2.83,0,0,0,.36,0l.13.15c-.09.5-.19,1-.28,1.51l-1.57-.07c-.77,0-1.5-.08-2.21-.11l-2.23,0c-.7,0-1.17,0-1.42,0,.11-.5.21-1,.31-1.51a4,4,0,0,0,1.19-.23,1,1,0,0,0,.56-.53,3.06,3.06,0,0,0,.19-1.07l.36-9.32A1.92,1.92,0,0,0,150.77,27.7Zm7.75,1.86a1.89,1.89,0,0,0,.71-1.2.55.55,0,0,0-.32-.52,2.34,2.34,0,0,0-1-.22l-.07-.17c.07-.49.15-1,.23-1.47l1.41.09c.71,0,1.28.07,1.72.07s1.15,0,1.74,0l1.2-.05.15.26c-.07.45-.13.9-.2,1.35a5.08,5.08,0,0,0-1.47.87,18.83,18.83,0,0,0-1.84,1.82q-1.4,1.42-2.82,2.85c1.13,1.65,2.28,3.28,3.45,4.92a7.38,7.38,0,0,0,1.47,1.6,2.75,2.75,0,0,0,1.54.51l.16.21-.21,1.26-1.58.16a14.22,14.22,0,0,1-1.47.11,2.54,2.54,0,0,1-1.5-.51,5.69,5.69,0,0,1-1.4-1.55q-2-3-3.86-6l.09-.51Q156.59,31.48,158.52,29.56Z"/><path class="a" d="M161.3,42.1h0a2.67,2.67,0,0,1-1.57-.53A5.75,5.75,0,0,1,158.28,40c-1.31-2-2.61-4-3.87-6l0,0,.11-.59,0,0q2-1.9,3.92-3.83h0a1.8,1.8,0,0,0,.67-1.11.45.45,0,0,0-.26-.42,2.53,2.53,0,0,0-1-.21h-.07l-.12-.27.25-1.61H158c.26,0,.76.06,1.41.09s1.26.07,1.71.07,1.16,0,1.73,0l1.2,0h.08l.21.37-.22,1.46-.07,0a5.19,5.19,0,0,0-1.43.85,17.46,17.46,0,0,0-1.83,1.81l-2.75,2.79c1.11,1.61,2.25,3.23,3.39,4.83a6.87,6.87,0,0,0,1.45,1.57,2.56,2.56,0,0,0,1.46.49h.07l.22.3-.23,1.39h-.1l-1.57.17C162,42.06,161.51,42.1,161.3,42.1Zm-6.65-8.24c1.25,2,2.54,4,3.83,6a6,6,0,0,0,1.37,1.52,2.44,2.44,0,0,0,1.44.48,12,12,0,0,0,1.45-.11l1.48-.15.19-1.12-.09-.13a2.73,2.73,0,0,1-1.55-.53,7.19,7.19,0,0,1-1.5-1.63c-1.16-1.62-2.32-3.27-3.45-4.91l-.06-.08.07-.07c.94-.94,1.89-1.9,2.82-2.86a23.22,23.22,0,0,1,1.85-1.83,5.34,5.34,0,0,1,1.44-.85l.18-1.25-.09-.16-1.13.05q-.87,0-1.74,0c-.45,0-1,0-1.72-.07l-1.31-.08-.21,1.32,0,.07a2.56,2.56,0,0,1,1,.23.71.71,0,0,1,.39.63,2,2,0,0,1-.75,1.28c-1.27,1.27-2.58,2.55-3.89,3.8Zm1.19,7.87h-.11c-.31,0-.85,0-1.58-.08l-2.2-.1-2.23,0c-.73,0-1.18,0-1.41,0h-.16l.36-1.74h.09a4,4,0,0,0,1.16-.22.84.84,0,0,0,.49-.47,3,3,0,0,0,.18-1l.36-9.33a1.88,1.88,0,0,0-.12-.94.78.78,0,0,0-.63-.22h-.83l-.18-.29.27-1.57h.11l3.38.17c.47,0,1.09,0,1.87,0l1.57,0h.14l-.19,1.82h-.09a3,3,0,0,0-1.23.39,1.17,1.17,0,0,0-.33.86L154,38.31a2.65,2.65,0,0,0,.14,1.27.82.82,0,0,0,.72.3h.66a1.06,1.06,0,0,0,.33,0l.08,0,.22.25Zm-7.23-.48h1.11l2.24.06c.69,0,1.43,0,2.21.1l1.46.07.25-1.36,0-.05-.3,0h-.68a1,1,0,0,1-.93-.42,2.66,2.66,0,0,1-.17-1.4q.27-4.72.53-9.47a1.35,1.35,0,0,1,.43-1,2.73,2.73,0,0,1,1.25-.43L156.1,26l-1.43.05c-.78,0-1.42,0-1.89,0l-3.28-.16-.21,1.26.06.1H150a1,1,0,0,1,.83.34h0a1.91,1.91,0,0,1,.16,1.07L150.67,38a3.26,3.26,0,0,1-.19,1.1,1.1,1.1,0,0,1-.63.6,3.9,3.9,0,0,1-1.14.23l-.26,1.28Z"/><path class="a" d="M172.13,40.15a2.42,2.42,0,0,0,1.43-.61,2.14,2.14,0,0,0,.33-1.45c-.08-3.07-.17-6.14-.25-9.21a2.17,2.17,0,0,0-.19-1,.71.71,0,0,0-.66-.25,4.45,4.45,0,0,0-.53,0l-.33,0-.16-.19c.06-.47.12-.95.17-1.42l3.19-.06c.64,0,1.35,0,2.14-.11l1.65-.12q3.24-.14,4.72,1.08a4.32,4.32,0,0,1,1.62,3.22,4.63,4.63,0,0,1-.7,2.74,6.4,6.4,0,0,1-5.18,3l-2.19.08c0,.61,0,1.22,0,1.84a7.18,7.18,0,0,0,.15,1.37.84.84,0,0,0,.36.57,1.48,1.48,0,0,0,.81.13c.24,0,.48,0,.71,0l.47,0,.09.11-.18,1.56h-1.36q-1,0-1.92,0c-.6,0-1.39.07-2.39.14s-1.66.13-2,.17Zm9.59-9.54a2.67,2.67,0,0,0-1-2.21,4.78,4.78,0,0,0-2.93-.59,1,1,0,0,0-.44.07c-.06.05-.09.16-.1.36q-.08,2.18-.06,5.55l2.32.23C181.07,33.63,181.82,32.49,181.72,30.61Z"/><path class="a" d="M171.81,41.89l.2-1.84h.09a2.37,2.37,0,0,0,1.36-.57,2.13,2.13,0,0,0,.31-1.38l-.25-9.21a2,2,0,0,0-.18-1c-.09-.14-.26-.2-.55-.19a4.41,4.41,0,0,0-.52,0l-.34,0h-.06l-.23-.27.19-1.58h.11l3.19-.06c.65,0,1.36-.05,2.13-.11s1.31-.09,1.65-.12c2.22-.09,3.79.27,4.81,1.11a4.5,4.5,0,0,1,1.67,3.31,4.82,4.82,0,0,1-.72,2.8A6.53,6.53,0,0,1,179.38,36l-2.07.08,0,1.72a7,7,0,0,0,.14,1.34.74.74,0,0,0,.3.5,1.35,1.35,0,0,0,.74.11c.25,0,.48,0,.7-.05l.49,0h.06l.15.2-.19,1.7h-1.47c-.66,0-1.31,0-1.91,0s-1.36.07-2.39.14-1.68.13-2,.17Zm.43-1.64-.15,1.36,1.84-.15c1-.07,1.82-.12,2.4-.14s1.25,0,1.92,0h1.25l.16-1.4,0,0-.4,0-.72,0a1.61,1.61,0,0,1-.87-.14,1,1,0,0,1-.42-.66,7.23,7.23,0,0,1-.15-1.39v-2h.12l2.18-.08a6.34,6.34,0,0,0,5.09-3,4.55,4.55,0,0,0,.68-2.67,4.27,4.27,0,0,0-1.57-3.14c-1-.79-2.49-1.14-4.64-1.05l-1.65.12c-.77.05-1.49.09-2.15.11l-3.08.06-.15,1.27.08.1.26,0a4.93,4.93,0,0,1,.55,0,.82.82,0,0,1,.76.3,2.24,2.24,0,0,1,.21,1.1l.25,9.2a2.28,2.28,0,0,1-.36,1.54A2.41,2.41,0,0,1,172.24,40.25Zm7.25-6.11h0l-2.32-.23H177v-.11c0-2.23,0-4.1.05-5.56,0-.24.06-.37.15-.44a.94.94,0,0,1,.51-.1,4.93,4.93,0,0,1,3,.61,2.8,2.8,0,0,1,1.08,2.3c.1,1.94-.68,3.13-2.33,3.53Zm-2.2-.46,2.18.22c1.53-.38,2.22-1.46,2.13-3.28h0a2.58,2.58,0,0,0-1-2.12,4.68,4.68,0,0,0-2.86-.57,1.08,1.08,0,0,0-.37.05s0,0,0,.26C177.29,29.67,177.27,31.5,177.29,33.68Z"/><path class="a" d="M194.66,40.42c0-.48,0-1,0-1.43a12.19,12.19,0,0,0,1.29-.27,1,1,0,0,0,.54-.28.64.64,0,0,0,.12-.49,4.5,4.5,0,0,0-.21-.83c-.24-.6-.48-1.2-.71-1.8-.91,0-1.71.09-2.4.15-.31,0-1,.11-1.94.26l-.55.09-.51,1.9a3,3,0,0,0-.1.76.64.64,0,0,0,.32.58,2,2,0,0,0,1,.1l1.13-.08.14.15c0,.5,0,1-.07,1.48l-1.59,0c-.81,0-1.57,0-2.27.09l-2,.15-1.17.11.09-1.57a1.87,1.87,0,0,0,1-.52,3.48,3.48,0,0,0,.66-1.22q1.94-6.24,3.73-12.51c1.27-.22,2.55-.45,3.82-.69l.29.1c.34.89,1,2.71,2.11,5.46s2,5,2.78,6.61a2.63,2.63,0,0,0,.85,1.16,2.5,2.5,0,0,0,1.39.3l.12.15,0,1.41-1.3.08-1.93.16c-.93.09-1.83.2-2.72.33l-1.69.25Zm-1.51-6.8,1.91-.23q-1-2.61-2-5.24l-.33,0Q192,31,191.28,33.76Z"/><path class="a" d="M185.53,41.24l.11-1.81.09,0a1.74,1.74,0,0,0,.91-.48,3.35,3.35,0,0,0,.63-1.18c1.29-4.13,2.54-8.34,3.73-12.5l0-.07.07,0c1.28-.22,2.56-.45,3.83-.69h0l.38.12,0,.05c.32.86,1,2.71,2.11,5.47s2,4.87,2.77,6.61a2.56,2.56,0,0,0,.81,1.1,2.41,2.41,0,0,0,1.31.28h.07l.18.23,0,1.57h-.12l-1.29.08-1.93.16c-.93.09-1.84.2-2.71.33l-1.48.21-.28,0-.22-.27V38.89l.1,0a10,10,0,0,0,1.27-.26,1,1,0,0,0,.49-.25.54.54,0,0,0,.08-.4,3.37,3.37,0,0,0-.2-.8c-.22-.57-.45-1.14-.68-1.72l-2.3.15c-.29,0-.91.1-1.93.26l-.47.08c-.16.6-.33,1.21-.49,1.82a2.78,2.78,0,0,0-.1.72.55.55,0,0,0,.25.48,1.87,1.87,0,0,0,.91.09l1.13-.08h.06l.22.24-.08,1.64h-.11l-1.5,0h-.09c-.81,0-1.58,0-2.27.1l-2,.15-1.17.11Zm.34-1.62L185.8,41l1-.1,2-.15c.7,0,1.47-.08,2.28-.09h.09l1.39,0,.06-1.32-.07-.08-1.07.08a2.09,2.09,0,0,1-1-.12.77.77,0,0,1-.39-.68,3.52,3.52,0,0,1,.11-.79l.52-1.9,0-.07.62-.1c1-.17,1.65-.25,1.95-.27l2.4-.15h.09l0,.08c.24.6.48,1.2.71,1.8a4.13,4.13,0,0,1,.22.86.78.78,0,0,1-.14.57,1.32,1.32,0,0,1-.61.33,11.65,11.65,0,0,1-1.2.25v1.28l.08.1.15,0,1.47-.22q1.32-.19,2.73-.33l1.93-.16,1.19-.07,0-1.26-.06-.07a2.58,2.58,0,0,1-1.39-.32,2.72,2.72,0,0,1-.9-1.21c-.81-1.74-1.74-4-2.78-6.61s-1.76-4.54-2.09-5.42l-.21-.07c-1.23.23-2.48.46-3.72.67-1.18,4.15-2.43,8.33-3.71,12.44a3.37,3.37,0,0,1-.68,1.27A1.9,1.9,0,0,1,185.87,39.62Zm5.25-5.73,0-.16c.49-1.84,1-3.72,1.46-5.58l0-.08.52,0,0,.08c.64,1.74,1.31,3.5,2,5.24l.05.14-.15,0-1.91.23h0l-1.87.14Zm1.73-5.6c-.46,1.78-.93,3.57-1.4,5.33l1.69-.12h0l1.75-.21c-.64-1.67-1.27-3.35-1.89-5Z"/><path class="a" d="M205.52,38a5.17,5.17,0,0,0,1.49-.52,1.22,1.22,0,0,0,.58-.72,3.64,3.64,0,0,0,0-1.3l-.09-.75a4,4,0,0,0-.3-1.15,7,7,0,0,0-.75-1.23c-1-1.42-2-2.84-3.05-4.27a6.54,6.54,0,0,0-1.38-1.6,3.36,3.36,0,0,0-1.78-.52l-.06-.12c0-.51,0-1,0-1.53l1.33-.1c.64,0,1.28-.09,1.9-.16s1.27-.17,2.18-.33l1.83-.32.12.2c0,.45,0,.9.05,1.36a3.81,3.81,0,0,0-1.18.35.56.56,0,0,0-.27.57,19.83,19.83,0,0,0,2.22,3.75l.62,1,.23,0c.52-1.42,1-2.85,1.54-4.27a2.81,2.81,0,0,0,.23-1.18.45.45,0,0,0-.37-.35,3.39,3.39,0,0,0-1-.05l-.07-.12V23.25l1.21-.11c.91-.08,1.61-.16,2.12-.23s1-.14,1.5-.24l1-.21.12.16c0,.48,0,1,0,1.45a3.69,3.69,0,0,0-1.46,1.16,12.32,12.32,0,0,0-1.18,2.32q-.91,2.31-1.85,4.6a2.94,2.94,0,0,0-.27,1.27c0,.42.09,1.18.24,2.28a1.83,1.83,0,0,0,.41,1.08,1.16,1.16,0,0,0,1,.21c.32,0,.59-.09.82-.13a4,4,0,0,0,.48-.12l.12.11c0,.54,0,1.09,0,1.63l-1.77.17c-.86.08-1.7.18-2.53.28-.63.07-1.39.2-2.27.37l-1.75.35Z"/><path class="a" d="M205.4,39.8V37.93l.09,0a5.24,5.24,0,0,0,1.46-.5,1.09,1.09,0,0,0,.52-.65,3.65,3.65,0,0,0,0-1.26l-.09-.74a4,4,0,0,0-.29-1.12,6.25,6.25,0,0,0-.74-1.21c-1-1.41-2-2.84-3.05-4.27A6.11,6.11,0,0,0,202,26.59a3.18,3.18,0,0,0-1.71-.5h-.06l-.11-.2,0-1.67h.11l1.33-.09c.64-.05,1.28-.1,1.9-.17s1.28-.17,2.17-.33l1.17-.2.65-.12h.09l.18.3.05,1.49h-.1a3.72,3.72,0,0,0-1.13.34.44.44,0,0,0-.22.46c0,.11.21.7,2.2,3.69.32.51.49.78.57.93h.09c.51-1.39,1-2.81,1.51-4.2a2.37,2.37,0,0,0,.22-1.12c0-.08,0-.19-.28-.26a3.45,3.45,0,0,0-1,0h-.07l-.12-.21V23.14h.11l1.22-.11c.85-.08,1.58-.16,2.11-.23s1-.14,1.49-.24l1-.2.07,0,.21.24,0,1.58-.07,0a3.55,3.55,0,0,0-1.42,1.12A12.06,12.06,0,0,0,213,27.6c-.61,1.53-1.23,3.08-1.85,4.59a2.91,2.91,0,0,0-.25,1.23c0,.41.08,1.16.23,2.27a1.79,1.79,0,0,0,.37,1,1.11,1.11,0,0,0,.89.17l.81-.13.46-.11.07,0,.22.19,0,1.79h-.11l-1.77.17c-.85.08-1.7.18-2.52.27-.63.08-1.37.2-2.27.38s-1.47.29-1.74.35Zm.24-1.68V39.5l1.6-.32c.91-.17,1.66-.3,2.29-.37l2.53-.28,1.66-.16V36.9l0,0-.42.09c-.24.05-.51.09-.83.13a1.27,1.27,0,0,1-1.09-.23,1.93,1.93,0,0,1-.44-1.15c-.15-1.12-.23-1.87-.24-2.29A3.06,3.06,0,0,1,211,32.1c.61-1.51,1.24-3.05,1.84-4.59a12.24,12.24,0,0,1,1.2-2.35A3.78,3.78,0,0,1,215.44,24l0-1.34-.05-.06-.95.19-1.51.24c-.53.07-1.25.15-2.12.23l-1.1.1v1.26a3.45,3.45,0,0,1,1,.06c.34.1.44.3.46.46a2.74,2.74,0,0,1-.24,1.23c-.5,1.41-1,2.85-1.53,4.27l0,.07-.27,0-.08.06-.18-.26h0l-.52-.83A22.49,22.49,0,0,1,206,25.9a.68.68,0,0,1,.34-.68,3.51,3.51,0,0,1,1.11-.35l0-1.22-.07-.11-1.74.31c-.89.16-1.63.27-2.18.33s-1.27.12-1.92.16l-1.21.09,0,1.39,0,0a3.47,3.47,0,0,1,1.77.54A6.81,6.81,0,0,1,203.52,28c1,1.43,2,2.87,3,4.28a6.59,6.59,0,0,1,.76,1.24,4.24,4.24,0,0,1,.31,1.19l.09.74a3.68,3.68,0,0,1,0,1.35,1.34,1.34,0,0,1-.63.79A4.94,4.94,0,0,1,205.64,38.12Z"/><path class="a" d="M221.63,37.36a11,11,0,0,1-1.76-.19,4.16,4.16,0,0,1-.71-.16l-.26-.3c0-.12,0-.36,0-.75s0-.89,0-1.53a17.65,17.65,0,0,0-.18-1.84l2.1-.46a6.29,6.29,0,0,0,.59,2,1.77,1.77,0,0,0,1,.88,4.28,4.28,0,0,0,1.81,0,3.63,3.63,0,0,0,1.92-.83,1.59,1.59,0,0,0,.51-1.5,1.64,1.64,0,0,0-1-1.2,17,17,0,0,0-2.65-.89l-.64-.17A11.65,11.65,0,0,1,219,29.1a3.21,3.21,0,0,1-1.46-2.32,3.86,3.86,0,0,1,.48-2.57,5.67,5.67,0,0,1,2.1-2.05A9.35,9.35,0,0,1,223.51,21a12.9,12.9,0,0,1,2.06-.2,14.41,14.41,0,0,1,1.55,0l.76.08.23.27c0,.1,0,.35,0,.76s0,.91,0,1.52.08,1.25.14,1.89l-1.85.47-.25-.11a2.32,2.32,0,0,1,0-.3,5,5,0,0,0-.07-.56,1.88,1.88,0,0,0-.84-1.42,3.23,3.23,0,0,0-2-.14,3.07,3.07,0,0,0-1.69.78,1.47,1.47,0,0,0-.49,1.35,1.5,1.5,0,0,0,.62,1,4.56,4.56,0,0,0,1.2.63c.45.15,1.11.35,2,.58,1,.27,1.89.52,2.57.76a5.56,5.56,0,0,1,1.83,1.06,3.11,3.11,0,0,1,1,1.8,3.86,3.86,0,0,1-.42,2.67A5.81,5.81,0,0,1,227.6,36a10.94,10.94,0,0,1-3.71,1.22A11.92,11.92,0,0,1,221.63,37.36Z"/><path class="a" d="M222.05,37.49h-.42a11.28,11.28,0,0,1-1.78-.19c-.68-.13-.78-.16-.8-.23l-.27-.31V36c0-.37,0-.89,0-1.52a17.19,17.19,0,0,0-.18-1.83l0-.11.11,0,2.1-.46.13,0,0,.12a6.24,6.24,0,0,0,.57,2,1.65,1.65,0,0,0,1,.82,4,4,0,0,0,1.75,0,3.45,3.45,0,0,0,1.85-.8,1.45,1.45,0,0,0,.48-1.39,1.54,1.54,0,0,0-1-1.12,18.3,18.3,0,0,0-2.63-.88l-.64-.16A11.76,11.76,0,0,1,219,29.2a3.32,3.32,0,0,1-1.51-2.4,4,4,0,0,1,.49-2.65,5.94,5.94,0,0,1,2.15-2.1,9.7,9.7,0,0,1,3.39-1.17,14.3,14.3,0,0,1,2.08-.2,14.74,14.74,0,0,1,1.57,0l.75.08h.05l.29.34v0c0,.1,0,.35,0,.76s0,.91,0,1.52.08,1.24.15,1.88v.1l-.1,0-1.86.47h0l-.35-.14v-.07a2.84,2.84,0,0,1,0-.31c0-.15,0-.33-.07-.55a1.84,1.84,0,0,0-.78-1.34,3.14,3.14,0,0,0-1.91-.12,2.88,2.88,0,0,0-1.62.74,1.36,1.36,0,0,0-.46,1.26,1.41,1.41,0,0,0,.57.89,4,4,0,0,0,1.17.6c.47.17,1.13.36,2,.58,1.05.28,1.89.53,2.58.77a5.86,5.86,0,0,1,1.86,1.08,3.23,3.23,0,0,1,1,1.87,3.94,3.94,0,0,1-.44,2.74,5.76,5.76,0,0,1-2.26,2.16,11,11,0,0,1-3.75,1.23A11.13,11.13,0,0,1,222.05,37.49Zm-2.81-.58a4.34,4.34,0,0,0,.66.15,12.14,12.14,0,0,0,1.74.18h0a11.61,11.61,0,0,0,2.23-.14,10.65,10.65,0,0,0,3.66-1.21,5.52,5.52,0,0,0,2.18-2.06,3.78,3.78,0,0,0,.41-2.58,3,3,0,0,0-1-1.74,5.26,5.26,0,0,0-1.78-1c-.67-.24-1.51-.49-2.56-.77-.84-.22-1.51-.42-2-.58a4.57,4.57,0,0,1-1.24-.65,1.59,1.59,0,0,1-.14-2.5,4,4,0,0,1,3.83-.66,2,2,0,0,1,.9,1.51,5.13,5.13,0,0,1,.07.57c0,.11,0,.18,0,.23l.15.06,1.71-.43c-.06-.61-.11-1.21-.13-1.79s0-1.13,0-1.54,0-.58,0-.7l-.18-.21-.7-.07a13.73,13.73,0,0,0-1.54,0,15.43,15.43,0,0,0-2,.2,9.39,9.39,0,0,0-3.3,1.15,5.46,5.46,0,0,0-2.06,2,3.76,3.76,0,0,0-.47,2.49A3.11,3.11,0,0,0,219.11,29a11.56,11.56,0,0,0,3.26,1.34l.63.16a17.34,17.34,0,0,1,2.68.9,1.77,1.77,0,0,1,1.09,1.29,1.69,1.69,0,0,1-.55,1.61,3.66,3.66,0,0,1-2,.85,4.2,4.2,0,0,1-1.86,0,1.87,1.87,0,0,1-1.11-.93,6.36,6.36,0,0,1-.58-1.92l-1.86.4a16,16,0,0,1,.16,1.75c0,.64,0,1.15,0,1.53s0,.58,0,.7Z"/><path class="a" d="M239.56,36a3.26,3.26,0,0,1-.91-1.73l.24-.39a7.69,7.69,0,0,0,2.3-.15,5.31,5.31,0,0,0,2.6-1.22,1.88,1.88,0,0,0,.69-1.87,1.58,1.58,0,0,0-1.25-1.25,7.4,7.4,0,0,0-3,.13l-.28-.16L239.45,28l1.58-.7A3.58,3.58,0,0,0,242.22,26a2,2,0,0,0,.24-1.41,1.22,1.22,0,0,0-.66-.85,1.8,1.8,0,0,0-1.23-.12,3.63,3.63,0,0,0-1.31.6,5.68,5.68,0,0,0-1.2,1.15l-.33.07c-.27-.52-.55-1-.82-1.54a10.9,10.9,0,0,1,1.85-1.58,6.59,6.59,0,0,1,2.39-1.15,4.57,4.57,0,0,1,2.85.17,2.49,2.49,0,0,1,1.49,1.77,2.8,2.8,0,0,1-.33,2A5.21,5.21,0,0,1,243.45,27l0,.16a6.47,6.47,0,0,1,2.91.63,2.53,2.53,0,0,1,1.35,1.69,3.56,3.56,0,0,1-.56,2.65,8.45,8.45,0,0,1-2.48,2.6,9.51,9.51,0,0,1-3.49,1.53A2,2,0,0,1,239.56,36Z"/><path class="a" d="M240.54,36.41a1.62,1.62,0,0,1-1.06-.32h0a3.31,3.31,0,0,1-.95-1.78v-.05l.3-.51h.08a7.81,7.81,0,0,0,2.27-.14,5.16,5.16,0,0,0,2.53-1.2,1.8,1.8,0,0,0,.67-1.76,1.47,1.47,0,0,0-1.17-1.15,7.17,7.17,0,0,0-3,.13h-.05l-.35-.21-.54-1.53.1,0,1.58-.7A3.51,3.51,0,0,0,242.11,26a1.9,1.9,0,0,0,.23-1.33,1.11,1.11,0,0,0-.6-.78,1.75,1.75,0,0,0-1.15-.11,3.74,3.74,0,0,0-1.26.59,5.39,5.39,0,0,0-1.17,1.12l0,0-.46.09,0-.08c-.28-.51-.56-1-.83-1.53l0-.07.05-.06a10.91,10.91,0,0,1,1.88-1.61,6.81,6.81,0,0,1,2.43-1.17,4.74,4.74,0,0,1,2.93.18,2.62,2.62,0,0,1,1.56,1.85,2.94,2.94,0,0,1-.34,2.09A5.46,5.46,0,0,1,243.59,27a6.48,6.48,0,0,1,2.87.64,2.65,2.65,0,0,1,1.41,1.76,3.68,3.68,0,0,1-.57,2.74,8.72,8.72,0,0,1-2.52,2.64,9.36,9.36,0,0,1-3.54,1.54A3,3,0,0,1,240.54,36.41Zm-1.76-2.12a3.14,3.14,0,0,0,.85,1.62h0a1.89,1.89,0,0,0,1.56.19,9.11,9.11,0,0,0,3.44-1.51A8.12,8.12,0,0,0,247.08,32a3.43,3.43,0,0,0,.55-2.56,2.4,2.4,0,0,0-1.29-1.61,6.34,6.34,0,0,0-2.85-.62h-.1l-.08-.33.07-.05a5.22,5.22,0,0,0,1.67-1.79,2.7,2.7,0,0,0,.32-1.92,2.35,2.35,0,0,0-1.43-1.69,4.43,4.43,0,0,0-2.76-.16,6.4,6.4,0,0,0-2.35,1.12,11.3,11.3,0,0,0-1.78,1.51l.75,1.38.19,0a5.58,5.58,0,0,1,1.2-1.13,3.57,3.57,0,0,1,1.35-.63,1.91,1.91,0,0,1,1.31.13,1.35,1.35,0,0,1,.73.94,2.12,2.12,0,0,1-.25,1.49,3.81,3.81,0,0,1-1.23,1.31l-1.5.66.44,1.24.2.11a7.37,7.37,0,0,1,3-.11,1.69,1.69,0,0,1,1.34,1.33,2,2,0,0,1-.73,2,5.35,5.35,0,0,1-2.65,1.26A7.81,7.81,0,0,1,239,34Z"/><path class="a" d="M258.15,28.36a6.94,6.94,0,0,0,1.61-.71,1.12,1.12,0,0,0,.51-.84,4.63,4.63,0,0,0-.25-1.58l-2.6-9.33a8.51,8.51,0,0,0-2,.76,1.25,1.25,0,0,0-.6,1,9.77,9.77,0,0,0,.16,2.17l-2,.66q-.33-2-1-5c.07-.11.14-.22.2-.33l2.52-.36q3.84-1,7.67-2.07l2.4-1,.35.18q.9,2.76,1.71,4.71l-2,.72a11.22,11.22,0,0,0-1-2,1.3,1.3,0,0,0-1-.57,7.17,7.17,0,0,0-2,.28c.25,1.17.63,2.74,1.14,4.72s1,3.78,1.46,5.39a2,2,0,0,0,.69,1.14,1.41,1.41,0,0,0,1.18.07,13.92,13.92,0,0,0,1.33-.45l.14.09c.08.54.16,1.08.23,1.62-1.83.45-3.31.82-4.44,1.12-.89.24-2.3.67-4.24,1.26C258.28,29.41,258.22,28.89,258.15,28.36Z"/><path class="a" d="M258.25,30.09l0-.14L258,28.38v-.1l.1,0a7.06,7.06,0,0,0,1.58-.7,1,1,0,0,0,.46-.75,4.73,4.73,0,0,0-.25-1.54l-2.57-9.21a7.73,7.73,0,0,0-1.8.71,1.12,1.12,0,0,0-.55.88,10.1,10.1,0,0,0,.16,2.13v.1l-.09,0-2,.66-.14,0,0-.14c-.22-1.31-.56-3-1-5v-.05l.26-.41h.06l2.51-.36c2.54-.66,5.12-1.35,7.66-2.07l2.38-.95.06,0,.44.22,0,.05c.59,1.83,1.17,3.41,1.71,4.7l0,.12-.11,0-2,.72-.11,0,0-.1a11.67,11.67,0,0,0-1-2,1.18,1.18,0,0,0-.88-.52,6.6,6.6,0,0,0-1.81.25c.25,1.16.63,2.71,1.12,4.6s1,3.8,1.46,5.39a1.83,1.83,0,0,0,.64,1.07,1.3,1.3,0,0,0,1.08.06q.63-.18,1.32-.45l.06,0,.23.15.26,1.78-.11,0c-1.49.37-3.19.79-4.44,1.13-.9.24-2.34.67-4.23,1.26Zm0-1.65c.06.45.12.89.17,1.34,1.83-.57,3.23-1,4.1-1.22,1.22-.33,2.87-.74,4.35-1.1L266.69,26l0,0c-.44.17-.88.31-1.29.43a1.61,1.61,0,0,1-1.28-.09,2.07,2.07,0,0,1-.74-1.21c-.46-1.58-.95-3.4-1.46-5.39S261,16.17,260.74,15l0-.11.12,0a7.51,7.51,0,0,1,2-.28,1.4,1.4,0,0,1,1.06.62,11.63,11.63,0,0,1,1,2l1.77-.64c-.52-1.26-1.08-2.8-1.65-4.56l-.25-.13-2.35.94c-2.55.72-5.14,1.41-7.69,2.07l-2.47.36-.15.24c.43,1.94.76,3.58,1,4.87l1.78-.58a9.32,9.32,0,0,1-.14-2.1,1.36,1.36,0,0,1,.66-1.05,9.14,9.14,0,0,1,2-.78l.12,0,2.64,9.45a4.9,4.9,0,0,1,.26,1.62,1.23,1.23,0,0,1-.57.92A6.27,6.27,0,0,1,258.28,28.44Z"/><path class="a" d="M274.62,24.55a6.3,6.3,0,0,1-3.31-1.76,8.63,8.63,0,0,1-2.09-3.62,9.06,9.06,0,0,1-.3-4.52,7.5,7.5,0,0,1,1.94-3.7,9,9,0,0,1,3.85-2.32,8.55,8.55,0,0,1,4.07-.38A6.42,6.42,0,0,1,282.1,9.9a8.76,8.76,0,0,1,2.22,3.52A8.72,8.72,0,0,1,284.8,18a7.22,7.22,0,0,1-1.94,3.82,9.4,9.4,0,0,1-4.06,2.44A8.35,8.35,0,0,1,274.62,24.55Zm6.58-4.69a6,6,0,0,0-.25-4,9,9,0,0,0-2.66-4.23,3.64,3.64,0,0,0-3.53-.62,3.32,3.32,0,0,0-2.29,2.15,6.33,6.33,0,0,0,.22,4,8.76,8.76,0,0,0,2.56,4.28,3.63,3.63,0,0,0,3.55.65A3.49,3.49,0,0,0,281.2,19.86Z"/><path class="a" d="M276,24.81a7.35,7.35,0,0,1-1.42-.14,6.57,6.57,0,0,1-3.38-1.8,8.73,8.73,0,0,1-2.11-3.67,9.06,9.06,0,0,1-.31-4.58,7.62,7.62,0,0,1,2-3.75,9.14,9.14,0,0,1,3.9-2.35,8.68,8.68,0,0,1,4.13-.38,6.48,6.48,0,0,1,3.38,1.67,9,9,0,0,1,2.26,3.57,9,9,0,0,1,.48,4.61,7.4,7.4,0,0,1-2,3.89,9.61,9.61,0,0,1-4.11,2.46A9.35,9.35,0,0,1,276,24.81Zm1.54-16.54a9.17,9.17,0,0,0-2.82.48A8.85,8.85,0,0,0,271,11,7.43,7.43,0,0,0,269,14.67a8.81,8.81,0,0,0,.3,4.46,8.47,8.47,0,0,0,2.05,3.57,6.3,6.3,0,0,0,3.26,1.74h0a8.19,8.19,0,0,0,4.11-.33,9.15,9.15,0,0,0,4-2.4A7.14,7.14,0,0,0,284.68,18a8.62,8.62,0,0,0-.48-4.49A8.76,8.76,0,0,0,282,10a6.38,6.38,0,0,0-3.25-1.61A7.88,7.88,0,0,0,277.56,8.27Zm0,14.12a3.76,3.76,0,0,1-2.38-.87,8.9,8.9,0,0,1-2.61-4.34,6.35,6.35,0,0,1-.21-4,3.44,3.44,0,0,1,2.36-2.23,3.8,3.8,0,0,1,3.65.65,9.05,9.05,0,0,1,2.69,4.28,6.13,6.13,0,0,1,.26,4.06h0a3.63,3.63,0,0,1-2.48,2.28A4.18,4.18,0,0,1,277.56,22.39ZM276,10.94a4,4,0,0,0-1.21.2,3.18,3.18,0,0,0-2.21,2.07,6.21,6.21,0,0,0,.21,3.9,8.8,8.8,0,0,0,2.53,4.22,3.52,3.52,0,0,0,3.44.63,3.42,3.42,0,0,0,2.32-2.14h0a5.92,5.92,0,0,0-.26-3.9,8.81,8.81,0,0,0-2.62-4.18A3.55,3.55,0,0,0,276,10.94Z"/><path class="a" d="M295.09,15.6a28.52,28.52,0,0,0,1.53-4.37,4.18,4.18,0,0,0,0-2.37,1.45,1.45,0,0,0-.82-.87,1.75,1.75,0,0,0-1.28.07,2.77,2.77,0,0,0-1.27,1,5,5,0,0,0-.81,1.76l-.32.11-1-1.44a7.39,7.39,0,0,1,1.46-2.62,5.68,5.68,0,0,1,2.25-1.62A4.78,4.78,0,0,1,297.86,5a2.8,2.8,0,0,1,1.9,1.69A3.45,3.45,0,0,1,300,8.33a10.74,10.74,0,0,1-.61,2.42q-.53,1.5-1.65,4.05l.17.14,2.46-.95a2.6,2.6,0,0,0,1.48-1.06,3.11,3.11,0,0,0,.08-1.91l1.76-.89c.05.3.17.91.38,1.86s.44,1.8.68,2.57l-.23.4c-.68.25-2,.75-4.05,1.46s-3.53,1.24-4.52,1.61l-1.53.8-.46-.66C294.33,17.31,294.71,16.46,295.09,15.6Z"/><path class="a" d="M294.36,19l-.56-.8,0-.06c.39-.85.77-1.71,1.15-2.56a30.08,30.08,0,0,0,1.52-4.35,4.12,4.12,0,0,0,0-2.3,1.29,1.29,0,0,0-.75-.81,1.66,1.66,0,0,0-1.19.07,2.65,2.65,0,0,0-1.21,1,4.87,4.87,0,0,0-.79,1.72l0,.06-.47.17,0-.08c-.35-.48-.7-1-1-1.45l0,0,0-.06a7.87,7.87,0,0,1,1.48-2.66,5.85,5.85,0,0,1,2.31-1.65,4.85,4.85,0,0,1,3.12-.26,2.92,2.92,0,0,1,2,1.75,3.49,3.49,0,0,1,.23,1.7,10.27,10.27,0,0,1-.62,2.45c-.37,1.05-.91,2.39-1.61,4l.05,0,2.39-.92a2.51,2.51,0,0,0,1.41-1,3,3,0,0,0,.07-1.84V11l.08,0,1.75-.88.15-.08,0,.16c0,.3.18.92.38,1.85s.44,1.8.68,2.56l0,.05-.29.49,0,0c-.61.22-2,.72-4.05,1.45l-.27.1c-1.92.67-3.31,1.16-4.25,1.51l-1.51.79Zm-.28-.82.36.51,1.43-.75c1-.35,2.35-.84,4.27-1.51l.27-.1c2-.72,3.37-1.21,4-1.44l.19-.33c-.24-.75-.47-1.6-.67-2.53s-.29-1.36-.35-1.7l-1.53.77a3.15,3.15,0,0,1-.11,1.91,2.77,2.77,0,0,1-1.54,1.11l-2.46,1-.07,0-.3-.25,0-.08c.71-1.62,1.27-3,1.64-4a9.89,9.89,0,0,0,.6-2.4,3.27,3.27,0,0,0-.2-1.59,2.67,2.67,0,0,0-1.83-1.61,4.64,4.64,0,0,0-3,.25A5.62,5.62,0,0,0,292.65,7a7.67,7.67,0,0,0-1.42,2.53l.95,1.32.17-.06A5.29,5.29,0,0,1,293.17,9a2.92,2.92,0,0,1,1.32-1,1.88,1.88,0,0,1,1.37-.07,1.51,1.51,0,0,1,.89.94,4.25,4.25,0,0,1,0,2.44,27.2,27.2,0,0,1-1.53,4.39h0C294.83,16.49,294.46,17.32,294.08,18.16Z"/><path class="b" d="M19.78,49.28,2.28,42.44l6.26-8.12L2.45,21.84c4.67,2,27,11.75,33.61,13.79v4.75l.71.26V35.18l-.25-.08C29.54,33,2.18,21,1.91,20.91l-.86-.38L7.74,34.25,1.22,42.71,19.78,50Z"/><path class="b" d="M319.81,34.25l6.8-14.06-.9.44c-.23.11-22.69,11.17-34.52,14.26l-.25.07V40.9l.7-.27v-5.2c10.59-2.83,29.23-11.73,33.51-13.81L319,34.32l6.34,8.2-17.43,7v.69l18.49-7.39Z"/><path class="b" d="M307.92,49.48V33.78l-.5.23c-4.05,1.83-9.37,4.11-15.78,6.62l-.7.27C263.36,51.62,216.2,66.17,163.3,66.17a299.15,299.15,0,0,1-52.66-5,412.92,412.92,0,0,1-45.79-11c-11.09-3.33-20.68-6.68-28.08-9.45l-.71-.26C26.21,36.67,20.39,34.05,20.29,34l-.51-.23V56.21l.18.09c.14.07,14.28,7.26,39,14.35a364.66,364.66,0,0,0,45.33,9.85A395.12,395.12,0,0,0,163.85,85,381.84,381.84,0,0,0,222,80.5a383.72,383.72,0,0,0,45.49-9.85c25.13-7.09,40.14-14.27,40.29-14.35l.18-.08V49.48Zm-40.7,20.58a384,384,0,0,1-45.39,9.83,382.8,382.8,0,0,1-58,4.47,396.11,396.11,0,0,1-59.45-4.47,363.45,363.45,0,0,1-45.23-9.83C36,63.41,22.18,56.69,20.48,55.85V34.79A408,408,0,0,0,64.61,50.68a415.16,415.16,0,0,0,45.88,11.08,300.87,300.87,0,0,0,52.81,5c65.42,0,122.08-22.18,143.92-32v21C305.43,56.68,290.79,63.41,267.22,70.06Z"/><path class="c" d="M65.87,65.58a2.27,2.27,0,0,0,1.16,0,1,1,0,0,0,.49-.71l1.58-5.36a1,1,0,0,0,0-.61.69.69,0,0,0-.46-.28L68,58.41l0-.1.32-.63,1.12.34,1,.3q.45.12,2.16.48l-.28.69a2.35,2.35,0,0,0-1,0,.65.65,0,0,0-.4.46c-.32.91-.65,1.89-1,3s-.62,1.9-.78,2.5a1.26,1.26,0,0,0-.07.76c0,.14.23.26.51.34l.86.19,0,.08-.36.67-.51-.15-1.85-.54a18.66,18.66,0,0,0-2.22-.47Z"/><path class="c" d="M79.26,66.87c-.6-1.21-1.08-2.2-1.47-3s-.63-1.24-.73-1.44l-.12,0q-.69,2.51-1.4,5a.69.69,0,0,0,0,.47.61.61,0,0,0,.4.24l.83.19,0,.08c-.11.22-.22.45-.34.67l-.78-.23c-.39-.12-.8-.23-1.21-.33s-.7-.17-1.09-.24-.66-.11-.77-.14l.3-.7a1.63,1.63,0,0,0,.85,0,.79.79,0,0,0,.43-.53l1.72-5.53a.63.63,0,0,0-.14-.67,3.27,3.27,0,0,0-1.07-.54l0-.11c.09-.19.19-.38.28-.58l.72.23q.54.18.93.27l.81.19.54.1c.5,1.14,1,2.26,1.57,3.36s1,2,1.39,2.73l.71,1.35.12,0,1.17-4.83a.52.52,0,0,0-.42-.71l-.61-.13,0-.09c.11-.22.21-.44.31-.67l.74.22L84,61.8c.32.08.67.14,1.07.21l.77.12c-.09.24-.18.48-.26.72a1.79,1.79,0,0,0-.91.07.76.76,0,0,0-.42.51q-1,3.66-2,7.32l-1.12-.08C80.49,69.35,79.87,68.08,79.26,66.87Z"/><path class="c" d="M87.35,71.67c-.41-.17-.75-.33-1-.47A3.44,3.44,0,0,1,86,71l-.07-.18s.08-.18.16-.38.19-.47.31-.82a10.6,10.6,0,0,0,.31-1.06l1.07.16a3.83,3.83,0,0,0-.13,1.38,1,1,0,0,0,.47.76,3.75,3.75,0,0,0,1.29.46,3.09,3.09,0,0,0,1.64,0,1.09,1.09,0,0,0,.8-.82,1,1,0,0,0-.38-1,12.53,12.53,0,0,0-1.53-1.14l-.3-.21a9,9,0,0,1-1.8-1.48,1.61,1.61,0,0,1-.42-1.51,2,2,0,0,1,.85-1.2,3.85,3.85,0,0,1,1.7-.6,6.52,6.52,0,0,1,2.22.12,13.33,13.33,0,0,1,1.29.35,9.75,9.75,0,0,1,.94.37,4,4,0,0,1,.43.2l0,.13c-.06.12-.19.4-.37.82s-.35.9-.51,1.4L93,66.59l-.12-.11a.58.58,0,0,0,.08-.21,2.74,2.74,0,0,0,.1-.39,1,1,0,0,0-.22-1,3.06,3.06,0,0,0-1.4-.57,2.69,2.69,0,0,0-1.45,0A.94.94,0,0,0,89.67,66a10.59,10.59,0,0,0,1.55,1.18q.94.63,1.5,1.05a3.84,3.84,0,0,1,.89,1,1.47,1.47,0,0,1,.23,1.13A2,2,0,0,1,93,71.62a3.73,3.73,0,0,1-1.79.62,7.5,7.5,0,0,1-2.45-.16A9.54,9.54,0,0,1,87.35,71.67Z"/><path class="c" d="M97.79,73.11a2.63,2.63,0,0,1-.57-2.4c.29-1.47.58-2.94.88-4.41a1.08,1.08,0,0,0,0-.61.63.63,0,0,0-.45-.24l-.34,0-.23,0,0-.06c.09-.23.18-.47.26-.7l.85.19,1.31.27,1.08.15.83.09-.24.73a1.54,1.54,0,0,0-.84.07.68.68,0,0,0-.33.48l-.9,4a2.51,2.51,0,0,0,.32,2,2.69,2.69,0,0,0,1.81,1,3,3,0,0,0,2-.2,1.87,1.87,0,0,0,.94-1.43c.12-.72.24-1.54.39-2.45s.24-1.56.29-1.93a1.13,1.13,0,0,0,0-.63c-.05-.1-.2-.17-.43-.21l-.39-.06-.28,0,0-.06c.09-.23.17-.46.26-.7l.79.16,1.16.22c.33.05.69.1,1.08.13l.76.06-.21.72a3.8,3.8,0,0,0-.74,0,.52.52,0,0,0-.34.15.71.71,0,0,0-.16.39c-.25,1.47-.51,3-.76,4.42A2.67,2.67,0,0,1,104,74.19a5.74,5.74,0,0,1-3.41.22A4.74,4.74,0,0,1,97.79,73.11Z"/><path class="c" d="M115.45,76.47a3.14,3.14,0,0,1-.77-1.07c-.45-.93-.89-1.86-1.33-2.78l-1.36-.2c-.1.6-.2,1.21-.31,1.81a2.09,2.09,0,0,0,0,.74.46.46,0,0,0,.29.33,3.82,3.82,0,0,0,.83.21l0,.06-.27.67-1-.17-1.38-.22L109,75.69l-.8-.09.28-.72a2.06,2.06,0,0,0,1.09-.13A1,1,0,0,0,110,74q.45-2.76.89-5.52a.87.87,0,0,0,0-.59.64.64,0,0,0-.45-.22l-.36,0-.22,0-.06-.08.25-.69.82.15c.4.08.79.14,1.18.2s.87.12,1.35.18l1,.11a5.51,5.51,0,0,1,2.65,1,1.84,1.84,0,0,1,.77,1.77,2.21,2.21,0,0,1-.85,1.41,4.65,4.65,0,0,1-2,.87c.47.81,1,1.62,1.43,2.43a3.58,3.58,0,0,0,.85,1,2.26,2.26,0,0,0,1.08.4l.08.11-.2.56-1.77-.08A1.75,1.75,0,0,1,115.45,76.47Zm-.85-4.8a2.11,2.11,0,0,0,.73-.46,1.6,1.6,0,0,0,.5-1c.15-1.11-.73-1.79-2.65-2.07a.37.37,0,0,0-.25,0,.54.54,0,0,0-.11.24c-.29,1.24-.51,2.26-.65,3.08l1.69.38A5.74,5.74,0,0,0,114.6,71.67Z"/><path class="c" d="M124.92,77.78l.15-.66a6,6,0,0,0,1.21,0,.38.38,0,0,0,.33-.33,2.18,2.18,0,0,0-.06-.59c-.12-.45-.24-.9-.35-1.34l-1.72-.2a17.09,17.09,0,0,0-1.81-.11L122,75.72a2.2,2.2,0,0,0-.2.47.4.4,0,0,0,.18.41,1.55,1.55,0,0,0,.71.2l.9.11,0,.07c-.07.23-.13.46-.19.69l-1-.17-1.5-.21-1.26-.14-.77-.07.24-.73a1.49,1.49,0,0,0,.77-.18,1.9,1.9,0,0,0,.62-.66q2.1-3.29,4.12-6.6l1.81,0,.17.06q.09.36.36,1.62c.19.84.42,1.82.71,2.94s.55,2.1.8,3a1.37,1.37,0,0,0,.45.75,2.28,2.28,0,0,0,1,.36l0,.07c-.06.22-.12.44-.19.66l-.8-.1-1.19-.13c-.6-.06-1.18-.11-1.74-.13s-.91-.05-1.07,0Zm-.38-3.94c.46,0,.95.08,1.47.1-.28-1.16-.55-2.32-.82-3.48l-.17,0c-.62,1.08-1.25,2.16-1.88,3.24Z"/><path class="c" d="M137.68,76.12l-1.94-2.66-1-1.29h-.12c-.17,1.72-.34,3.44-.52,5.17a.69.69,0,0,0,.11.46.6.6,0,0,0,.43.16l.84.06,0,.07c-.07.24-.14.48-.22.72-.14,0-.41-.06-.81-.1l-1.23-.13c-.35,0-.72,0-1.11,0h-.78l.18-.75a1.61,1.61,0,0,0,.82-.18.75.75,0,0,0,.33-.59l.75-5.74a.65.65,0,0,0-.25-.63,3,3,0,0,0-1.14-.36l-.06-.1.18-.62.73.11c.38,0,.7.09,1,.11l.82,0h.54c.69,1,1.39,2,2.12,3s1.33,1.81,1.81,2.45.8,1,.93,1.21h.13c.1-1.65.21-3.29.32-4.94,0-.4-.15-.61-.53-.63l-.63,0,0-.09c.06-.23.12-.47.19-.71l.75.09,1.14.1c.32,0,.68,0,1.08,0h.77c0,.25-.08.5-.13.76a1.84,1.84,0,0,0-.87.21.77.77,0,0,0-.33.58q-.36,3.78-.73,7.55l-1.11.11C139.3,78.36,138.48,77.21,137.68,76.12Z"/><path class="c" d="M147.08,79.12a4,4,0,0,1-1.75-1.58,4.09,4.09,0,0,1-.52-2.32,4.38,4.38,0,0,1,.91-2.47,5.12,5.12,0,0,1,2.22-1.61,7.83,7.83,0,0,1,3.17-.49c.42,0,.87.06,1.33.12l1.18.19.62.12.09.13a3.78,3.78,0,0,0-.14.42c-.06.22-.13.51-.2.87s-.14.74-.19,1.14l-1.22,0s0-.13,0-.26,0-.27,0-.44c0-.82-.72-1.25-2.23-1.31a3.41,3.41,0,0,0-2.51.78,3.3,3.3,0,0,0-1,2.42,4.45,4.45,0,0,0,.34,2,3.13,3.13,0,0,0,1.18,1.38,3.76,3.76,0,0,0,1.87.54,2.44,2.44,0,0,0,2.73-2l1.24,0c0,.14-.12.47-.23,1a13.89,13.89,0,0,0-.26,1.42l-.13.13a3.84,3.84,0,0,1-.57.14c-.39.09-.86.16-1.41.23a13.09,13.09,0,0,1-1.8.06A6.86,6.86,0,0,1,147.08,79.12Z"/><path class="c" d="M165.32,77.42a15.84,15.84,0,0,0-.48,2.43l-.13.11-5.43-.12q-1.4,0-2.73.09l.12-.75a2.06,2.06,0,0,0,1.07-.31A1.12,1.12,0,0,0,158,78c0-1.86.07-3.71.11-5.56a1,1,0,0,0-.12-.6.62.62,0,0,0-.48-.16l-.57,0-.07-.09.15-.7c1.35.06,2.26.08,2.74.09,1.33,0,2.4,0,3.2,0s1.47-.06,2-.13l.08.11q-.14.51-.24,1.17a10.1,10.1,0,0,0-.15,1.22l-1.16.07,0-.58a.73.73,0,0,0-.79-.88c-.32,0-.87-.06-1.65-.07l-.75,0a.35.35,0,0,0-.27.13.86.86,0,0,0-.08.35c-.06.82-.11,1.63-.17,2.44l1.73,0,1,0,1.13-.1.09.1c-.08.32-.16.65-.25,1l-2.36,0c-.34,0-.79,0-1.35.07,0,.78-.06,1.56-.08,2.34a1.33,1.33,0,0,0,.07.56.44.44,0,0,0,.32.22A4.32,4.32,0,0,0,161,79a10.14,10.14,0,0,0,1.91-.1,1.25,1.25,0,0,0,.83-.43,2.55,2.55,0,0,0,.39-1.1l1.09-.08Z"/><path class="c" d="M172,79.13a2.05,2.05,0,0,0,1-.37,1,1,0,0,0,.23-.81c0-1.86-.09-3.71-.13-5.56a1,1,0,0,0-.15-.59.59.59,0,0,0-.48-.14l-.36,0-.23,0-.07-.07.12-.71h.45l1.58,0,1.33-.06,1-.07a5.16,5.16,0,0,1,3,.56,2.18,2.18,0,0,1,1.05,1.81,2.31,2.31,0,0,1-.5,1.52,3.91,3.91,0,0,1-1.46,1.21,4.68,4.68,0,0,1-2,.5l-1.5,0,0,1.22a4.89,4.89,0,0,0,.08.86.51.51,0,0,0,.23.36,1.2,1.2,0,0,0,.53.08l.53,0a2.84,2.84,0,0,0,.35,0l0,.07c-.05.25-.09.5-.14.75h-.77l-1.11,0-1.7.09a9.32,9.32,0,0,0-1.08.1C171.92,79.63,172,79.38,172,79.13Zm6.45-5.67a1.6,1.6,0,0,0-.77-1.41,4.41,4.41,0,0,0-2.25-.37,1,1,0,0,0-.36,0s-.06.08-.07.19q-.11,1.6-.09,3.51l1.74.13A1.89,1.89,0,0,0,178.44,73.46Z"/><path class="c" d="M186.93,79.14l0-.68a5.27,5.27,0,0,0,1.18-.23.34.34,0,0,0,.26-.37,1.55,1.55,0,0,0-.16-.57c-.2-.42-.39-.84-.58-1.27l-1.73.1q-.85.06-1.8.21c-.16.43-.32.87-.49,1.3a1.49,1.49,0,0,0-.11.49.41.41,0,0,0,.24.38,1.68,1.68,0,0,0,.74.07l.91,0,.05.07-.06.71h-1c-.52,0-1,0-1.51,0l-1.27.08-.77.06c0-.25.07-.51.11-.76a1.63,1.63,0,0,0,.73-.31,2,2,0,0,0,.49-.76c1-2.4,1.93-4.8,2.87-7.2l1.78-.35.17,0c.1.22.31.73.65,1.53s.74,1.72,1.21,2.77.92,2,1.32,2.77a1.4,1.4,0,0,0,.58.67,2.53,2.53,0,0,0,1.05.17l.06.06c0,.23-.05.46-.07.69l-.81,0-1.19.08c-.6,0-1.18.1-1.73.17l-1.06.15Zm-1.08-3.81q.69,0,1.47-.15c-.48-1.1-1-2.19-1.43-3.29h-.18c-.41,1.17-.84,2.34-1.26,3.51Z"/><path class="c" d="M194.24,78a3.72,3.72,0,0,0,.95-.31.72.72,0,0,0,.36-.43,2.18,2.18,0,0,0,0-.79l0-.53a2.39,2.39,0,0,0-.18-.7,3.39,3.39,0,0,0-.47-.75c-.62-.8-1.24-1.61-1.85-2.42a8.64,8.64,0,0,0-.66-.81,1.55,1.55,0,0,0-.6-.37,3.21,3.21,0,0,0-1-.15l0,0c0-.23,0-.47.07-.7l.8,0,1.24-.09c.39,0,.87-.09,1.44-.17l1.13-.17.08.11,0,.62a3.69,3.69,0,0,0-.92.22.35.35,0,0,0-.21.35,6,6,0,0,0,.85,1.43c.55.8.95,1.35,1.19,1.65h.12c.49-.94,1-1.87,1.46-2.81a1.29,1.29,0,0,0,.19-.7c0-.1-.1-.18-.26-.23a3.35,3.35,0,0,0-.78,0l0,0,.06-.66.48,0c.63,0,1.16-.06,1.59-.1l1-.13.69-.1.08.08c0,.23,0,.45,0,.68a2.51,2.51,0,0,0-.82.37,2.1,2.1,0,0,0-.53.54c-.15.21-.37.58-.66,1.09l-1.46,2.59a1.78,1.78,0,0,0-.22.8,15.38,15.38,0,0,0,.1,1.55.93.93,0,0,0,.24.63.88.88,0,0,0,.63.11c.2,0,.38,0,.54-.06l.32-.06.06.06c0,.26,0,.53-.08.79l-1,.06-1.51.13q-.56,0-1.32.18l-1,.17C194.21,78.47,194.23,78.21,194.24,78Z"/><path class="c" d="M204.76,77.56a9,9,0,0,1-1.1-.11,2.86,2.86,0,0,1-.44-.1l-.13-.15c0-.06,0-.19,0-.41s0-.5,0-.87a10.18,10.18,0,0,0-.06-1.11l1.06-.19a4.26,4.26,0,0,0,.33,1.35,1.09,1.09,0,0,0,.7.56,4,4,0,0,0,1.37,0,3,3,0,0,0,1.54-.55,1.08,1.08,0,0,0,.47-1,1,1,0,0,0-.68-.79,11.81,11.81,0,0,0-1.82-.59l-.35-.1a9.2,9.2,0,0,1-2.19-.82,1.62,1.62,0,0,1-.9-1.28A2,2,0,0,1,203,70a3.73,3.73,0,0,1,1.4-1.12,6.49,6.49,0,0,1,2.12-.61,12.8,12.8,0,0,1,1.34-.08,9.26,9.26,0,0,1,1,0l.47,0,.08.11c0,.13,0,.43-.07.89a14.68,14.68,0,0,0,0,1.49l-.92.19-.15-.07a1.43,1.43,0,0,0,0-.22,3,3,0,0,0,0-.4,1,1,0,0,0-.55-.88,3.07,3.07,0,0,0-1.51-.09,2.66,2.66,0,0,0-1.35.51,1,1,0,0,0-.45.91,1.06,1.06,0,0,0,.68.81,12,12,0,0,0,1.85.61c.73.18,1.32.35,1.76.5a4.14,4.14,0,0,1,1.16.61,1.52,1.52,0,0,1,.59,1A2,2,0,0,1,210,75.7a3.74,3.74,0,0,1-1.48,1.17,7.81,7.81,0,0,1-2.36.64A7.91,7.91,0,0,1,204.76,77.56Z"/><path class="c" d="M217.94,74.34a17.16,17.16,0,0,0,1.75-2.43,2.46,2.46,0,0,0,.42-1.46.86.86,0,0,0-.44-.65,1.46,1.46,0,0,0-.93-.1,2.32,2.32,0,0,0-1.05.48,2.83,2.83,0,0,0-.81,1l-.19,0-.36-.74a4.06,4.06,0,0,1,1.22-1.3,4,4,0,0,1,1.64-.69,3.36,3.36,0,0,1,1.91.17,1.45,1.45,0,0,1,.9,1.11,1.77,1.77,0,0,1-.15,1,8.4,8.4,0,0,1-.85,1.41c-.42.57-1,1.33-1.83,2.29l.09.08c.75-.11,1.49-.23,2.24-.36a3.3,3.3,0,0,0,.94-.26,1,1,0,0,0,.47-.45,2.68,2.68,0,0,0,.21-.83l1-.25c0,.15,0,.48-.07,1a11.37,11.37,0,0,0,0,1.42l-.21.16c-.46.07-1.37.21-2.75.4l-3.05.43L217,76l-.21-.32Z"/><path class="c" d="M231.58,72.7a5.7,5.7,0,0,0,1.15-.4.71.71,0,0,0,.37-.5,3.35,3.35,0,0,0-.09-1l-1.17-5.68a10.17,10.17,0,0,0-1.68.46,1,1,0,0,0-.56.54,4.09,4.09,0,0,0-.08,1.25l-1.07.27c0-.82-.13-1.71-.27-2.65l.15-.15,1.56-.14c1.77-.35,3.53-.7,5.3-1.07l1.53-.48.19.08c.26.94.52,1.76.79,2.48l-1.07.3a5,5,0,0,0-.61-1.16.89.89,0,0,0-.69-.3,10,10,0,0,0-1.61.19c.06.59.21,1.53.42,2.81s.43,2.44.65,3.47a1,1,0,0,0,.38.66,1.1,1.1,0,0,0,.79.06q.47-.1.93-.24l.09,0v.79c-1.12.2-2,.37-2.78.52s-1.69.36-2.61.58C231.59,73.19,231.58,73,231.58,72.7Z"/><path class="c" d="M242.59,70.69a4,4,0,0,1-3.15-3.17,4.27,4.27,0,0,1,.17-2.58,5.11,5.11,0,0,1,1.6-2.14,6.75,6.75,0,0,1,2.71-1.28,6.3,6.3,0,0,1,2.68-.1,4.06,4.06,0,0,1,3.25,3.06,4.33,4.33,0,0,1-.11,2.62,5,5,0,0,1-1.63,2.19,7,7,0,0,1-2.83,1.32A6,6,0,0,1,242.59,70.69Zm4.58-1.88a2.86,2.86,0,0,0,.85-1.4,3.63,3.63,0,0,0,0-1.79,4.62,4.62,0,0,0-.92-1.9,3.21,3.21,0,0,0-1.52-1,3.62,3.62,0,0,0-1.91,0,3.27,3.27,0,0,0-1.53.77,2.84,2.84,0,0,0-.82,1.37,3.74,3.74,0,0,0,0,1.79,4.64,4.64,0,0,0,.89,1.91,3.07,3.07,0,0,0,1.48,1,3.8,3.8,0,0,0,3.5-.75Z"/><path class="c" d="M256.91,66.91a3.47,3.47,0,0,0,.92-.43.76.76,0,0,0,.34-.53,2,2,0,0,0-.1-.85l-.84-3c-.09-.31-.22-.5-.38-.56a1.31,1.31,0,0,0-.74.05,3.7,3.7,0,0,0-.5.17l-.36.15-.08-.05c0-.22-.07-.44-.1-.66l1.88-.73c.88-.36,1.41-.58,1.59-.67l.29-.13.22.25a1.37,1.37,0,0,0-.31,1.27c.23,1.13.55,2.4,1,3.79a1.16,1.16,0,0,0,.36.66.86.86,0,0,0,.7,0l.55-.17.31-.12.08,0c0,.26,0,.52,0,.78l-.94.23-1.43.38a14.31,14.31,0,0,0-1.36.45l-1,.37C257,67.41,256.94,67.16,256.91,66.91Z"/></svg>